<?xml version="1.0" encoding="UTF-8"?>
<svg width="24px" height="24px" viewBox="0 0 24 24" version="1.1" xmlns="http://www.w3.org/2000/svg" xmlns:xlink="http://www.w3.org/1999/xlink">
    <!-- Generator: Sketch 52.6 (67491) - http://www.bohemiancoding.com/sketch -->
    <title>medium</title>
    <desc>Created with Sketch.</desc>
    <g id="Page-1" stroke="none" stroke-width="1" fill="none" fill-rule="evenodd">
        <g id="medium" fill="#2C3038" fill-rule="nonzero">
            <path d="M22.225,0 L1.771,0 C0.792,0 0,0.774 0,1.729 L0,22.271 C0,23.227 0.792,24 1.771,24 L22.222,24 C23.2,24 24,23.227 24,22.271 L24,1.729 C24,0.774 23.2,0 22.222,0 L22.225,0 Z M5.80242764,8.44797178 C5.82131248,8.26242198 5.75015817,8.07902665 5.610831,7.95414462 L4.19159664,6.25396825 L4.19159664,6 L8.59831933,6 L12.0044818,13.4285714 L14.9990664,6 L19.2,6 L19.2,6.25396825 L17.9865546,7.41093474 C17.8819423,7.49023243 17.8300493,7.62056379 17.8517274,7.74955908 L17.8517274,16.250441 C17.8300493,16.3794362 17.8819423,16.5097675 17.9865546,16.5890653 L19.1716153,17.7460318 L19.1716153,18 L13.210831,18 L13.210831,17.7460318 L14.4384688,16.5608466 C14.5591036,16.4409171 14.5591036,16.4056438 14.5591036,16.2222223 L14.5591036,9.35097002 L11.145845,17.9717813 L10.6845938,17.9717813 L6.71073762,9.35097002 L6.71073762,15.1287478 C6.67760506,15.3716618 6.75873269,15.6162231 6.93071895,15.7918872 L8.52735761,17.7178131 L8.52735761,17.9717813 L4,17.9717813 L4,17.7178131 L5.59663866,15.7918872 C5.7673727,15.6159318 5.84376972,15.3697483 5.80242764,15.1287478 L5.80242764,8.44797178 Z" id="Shape"></path>
        </g>
    </g>
</svg>