<?xml version="1.0" encoding="UTF-8"?>
<svg width="123px" height="121px" viewBox="0 0 123 121" version="1.1" xmlns="http://www.w3.org/2000/svg" xmlns:xlink="http://www.w3.org/1999/xlink">
    <!-- Generator: Sketch 52.6 (67491) - http://www.bohemiancoding.com/sketch -->
    <title>trips</title>
    <desc>Created with Sketch.</desc>
    <g id="trips" stroke="none" stroke-width="1" fill="none" fill-rule="evenodd">
        <g id="Group-4-Copy">
            <path d="M52.1567334,105.457031 C82.594855,105.457031 118,98.1201241 118,68.1556001 C118,38.1910761 63.4664504,27 33.0283288,27 C2.59020717,27 0.359375,38.1910761 0.359375,68.1556001 C0.359375,98.1201241 21.7186118,105.457031 52.1567334,105.457031 Z" id="Oval-Copy-2" fill="#4A90E2" opacity="0.2734375" transform="translate(59.179688, 66.228516) scale(-1, 1) translate(-59.179688, -66.228516) "></path>
            <g id="noun_UK_1129442" transform="translate(26.000000, 0.000000)" fill="#000000" fill-rule="nonzero">
                <path d="M76.9126063,80.2635273 C76.3802437,80.2214946 75.945426,79.8535044 75.8538656,79.3675055 L74.2657547,71.0860922 C74.234722,70.9243008 74.1643331,70.7711187 74.0598884,70.6380813 L64.1783092,57.9715917 C64.1253132,57.9041142 64.0809067,57.8312287 64.0459666,57.7543743 L58.2964167,45.0335804 C58.2002223,44.8248886 58.0356768,44.6492357 57.8258653,44.5312652 L44.1504654,36.7114388 C43.6597697,36.4220579 43.472195,35.8447992 43.7093235,35.3538301 L53.1938751,17.5555794 C53.3659023,17.2315838 53.3524111,16.8498642 53.1578721,16.5369118 C52.963333,16.2239594 52.6131495,16.0206405 52.2233628,15.9943294 L35.6511309,14.8675141 C35.2265206,14.8413518 34.8503194,14.6055096 34.6673591,14.250783 C34.4843988,13.8960564 34.5232085,13.4777583 34.768847,13.1569271 L43.5916857,1.7258615 C43.8734727,1.36893437 43.8930755,0.89000738 43.6412691,0.514463861 C43.3894627,0.138920343 42.9164047,-0.0584345632 42.4447166,0.0152744839 L29.1075256,2.01095934 C28.8027714,2.05335418 28.5282084,2.20447276 28.3428795,2.43181805 L15.2262594,18.723123 C15.0346762,18.9654074 14.9601648,19.2700596 15.0203932,19.5648404 L19.7700213,44.0017978 C19.8284038,44.3022998 20.0210816,44.5662392 20.3008662,44.7289745 C20.5806507,44.8917098 20.9217025,44.9382117 21.2404944,44.8570913 L27.0194538,43.255113 C27.4142036,43.152859 27.8381415,43.2477303 28.1383675,43.5055101 C28.4385936,43.7632899 28.5717936,44.1467878 28.4899269,44.5176891 L26.5047882,53.2471133 C26.4134695,53.5736112 26.4915927,53.9207489 26.7162276,54.1866379 C26.9408626,54.4525269 27.2865243,54.6070016 27.6517572,54.604722 L40.7389678,54.604722 C41.2958526,54.6071891 41.774565,54.9698307 41.8859369,55.4735916 L45.9591474,73.5569401 C46.0685519,74.0563212 45.7872587,74.5587897 45.2827297,74.7652119 L32.9307556,79.8698208 C32.4877082,80.0539167 32.212824,80.4705364 32.2388725,80.9184518 C32.2649209,81.3663672 32.5865425,81.7534179 33.0483935,81.8926578 L35.533493,82.6393426 C35.9302943,82.7599422 36.2280558,83.0657812 36.315793,83.4428643 C36.4035302,83.8199474 36.2680806,84.2117038 35.9599302,84.4721144 L25.5195712,93.3237234 C25.261356,93.5419358 25.1218142,93.8549824 25.1388697,94.1777849 C25.1559253,94.5005875 25.3278062,94.7996087 25.6077996,94.9935822 L32.9601651,100.016735 C33.1935195,100.174003 33.4813996,100.24649 33.7689253,100.220376 L49.9441295,98.8627671 C50.379914,98.8256983 50.8019657,99.0150351 51.0397088,99.3542554 C51.277452,99.6934757 51.2915842,100.126501 51.0763938,100.478321 L47.7678293,105.813724 C47.558432,106.148579 47.172,106.355403 46.7532028,106.356767 L33.9600868,106.356767 C33.5634364,106.355913 33.1930271,106.539663 32.9748698,106.845506 L24.1520312,119.321931 C23.893713,119.688814 23.8991042,120.162988 24.1657072,120.524784 C24.4323102,120.886581 24.9080457,121.065326 25.3725239,120.978213 L40.3860543,118.262996 C40.6672281,118.211185 40.9182273,118.066352 41.0918814,117.855713 L44.4592648,113.782887 C44.6153034,113.597963 44.8319586,113.464612 45.0768635,113.402757 L83.3091643,103.410756 C83.8100439,103.246384 84.1292912,102.792317 84.0879946,102.30302 C84.0466979,101.813724 83.6551198,101.410794 83.1327075,101.320039 C82.6688801,101.293351 82.2655433,101.017062 82.1034124,100.614962 C81.9412814,100.212862 82.0507482,99.7603268 82.3827662,99.4601149 L89.6469034,92.957169 C89.872147,92.7533328 89.9992983,92.4745269 89.9998169,92.1833321 L89.9998169,82.3135165 C90.010527,81.7484805 89.5501213,81.2702791 88.9410763,81.2138534 C84.9315863,80.897078 80.9220963,80.5803027 76.9126063,80.2635273 Z M87.0735754,91.4230712 L80.3535133,97.4372779 C79.1699852,98.4891437 78.7769836,100.089896 79.3535916,101.510104 L79.3535916,101.618713 L44.2975128,110.8233 C43.4314569,111.045263 42.6674086,111.521888 42.1212126,112.180909 L39.1802663,115.75142 L28.8869546,117.611344 L34.8570754,109.099137 L46.6208603,109.099137 C48.097575,109.098836 49.4610266,108.368421 50.1941099,107.184909 L53.5026744,101.849506 C54.231326,100.673149 54.2265754,99.2276175 53.4902053,98.0553643 C52.7538352,96.8831111 51.397212,96.1614244 49.9294248,96.1611257 L49.532397,96.1611257 L34.0336105,97.5187344 L28.9604783,94.043256 L37.7833169,86.5221036 C38.6453465,85.7914476 39.1298952,84.7566515 39.1158648,83.676331 C39.1018345,82.5960105 38.5905507,81.5722383 37.7097932,80.8608751 L46.5326319,77.263212 C48.2981512,76.5304265 49.2760316,74.7642763 48.8853888,73.0138966 L44.8268831,54.9305481 C44.4247892,53.170673 42.7459052,51.9091576 40.7977868,51.9030806 L29.8721716,51.9030806 L31.3426447,45.1150369 C31.6378283,43.802564 31.1624566,42.4435745 30.0915507,41.5384176 C29.0206448,40.6332607 27.5125319,40.3157587 26.1224652,40.7028085 L22.2404162,41.7753194 L18.0495678,19.8635143 L30.3574277,4.59041595 L38.8861717,3.32783982 L32.4602042,11.582101 C31.5876102,12.6997694 31.4383554,14.165862 32.0700925,15.414071 C32.7018296,16.66228 34.0156574,17.4971928 35.5040836,17.5963077 L49.4588734,18.5330577 L41.0771767,34.10483 C40.1209738,35.8479637 40.7578726,37.9765759 42.5476498,39.0193737 L55.7819077,46.5676783 L61.3255913,58.786157 C61.4501984,59.0554656 61.6080961,59.310578 61.7961427,59.5464179 L71.4424463,71.9006574 L72.9129194,79.8155164 C73.2440544,81.5087798 74.7619399,82.787819 76.6185116,82.9380165 L87.0294612,83.7525818 L87.0735754,91.4230712 Z" id="Shape"></path>
                <path d="M24.8232836,59.6708708 L17.977358,50.4046468 C17.7416083,50.1325592 17.3700833,49.9817615 16.9847717,50.0017675 L11.875872,50.0017675 C11.5699391,50.0022234 11.2764251,50.1095538 11.058448,50.300678 L0.344355442,59.6708708 C-0.0851019044,60.0510892 -0.116792036,60.6605302 0.27137116,61.0744503 L4.15413496,65.2072122 C4.35303044,65.4198429 4.6389239,65.5531088 4.94851097,65.5775015 C5.25809805,65.6018941 5.56583464,65.5154007 5.80357974,65.3371733 L9.10246929,62.8939052 C9.37726393,62.6896767 9.74208292,62.6089398 10.0922953,62.6748502 C10.4425077,62.7407605 10.7394221,62.9460363 10.8978826,63.231804 L12.1386154,65.428146 C12.3383769,65.7811242 12.7456615,66.0027254 13.1895891,65.9999747 L19.1888971,65.9999747 C19.5281233,65.9836101 19.8425283,65.8365303 20.0501116,65.5970954 L24.7357025,60.8795087 C25.0526539,60.5349204 25.0878749,60.0488635 24.8232836,59.6708708 Z M18.38607,63.4007534 L14.211369,63.4007534 L13.4523325,62.1011427 C12.8945189,61.1052273 11.8555137,60.3913259 10.6320702,60.1633379 C9.40862662,59.93535 8.13526884,60.2183439 7.17568424,60.9314931 L5.27809291,62.3480687 L3.55566385,60.5156177 L12.6057148,52.6009888 L16.0505729,52.6009888 L21.6411689,60.1647228 L18.38607,63.4007534 Z" id="Shape"></path>
            </g>
            <g id="noun_Circle_1064262" transform="translate(78.000000, 50.000000)" fill="#000000">
                <ellipse id="Oval" cx="2.5" cy="2" rx="2.5" ry="2"></ellipse>
            </g>
            <g id="noun_Circle_1064262-Copy" transform="translate(82.000000, 81.000000)" fill="#000000">
                <ellipse id="Oval" cx="2.5" cy="2" rx="2.5" ry="2"></ellipse>
            </g>
            <g id="noun_Circle_1064262-Copy-2" transform="translate(98.000000, 89.000000)" fill="#000000">
                <ellipse id="Oval" cx="2.5" cy="2" rx="2.5" ry="2"></ellipse>
            </g>
            <g id="noun_Circle_1064262-Copy-3" transform="translate(75.000000, 64.000000)" fill="#000000">
                <ellipse id="Oval" cx="2.5" cy="2" rx="2.5" ry="2"></ellipse>
            </g>
        </g>
    </g>
</svg>