<?xml version="1.0" encoding="UTF-8"?>
<svg width="108px" height="33px" viewBox="0 0 108 33" version="1.1" xmlns="http://www.w3.org/2000/svg" xmlns:xlink="http://www.w3.org/1999/xlink">
    <!-- Generator: Sketch 52.6 (67491) - http://www.bohemiancoding.com/sketch -->
    <title>encore</title>
    <desc>Created with Sketch.</desc>
    <g id="Page-1" stroke="none" stroke-width="1" fill="none" fill-rule="evenodd">
        <g id="encore" fill="#FFFFFF">
            <polygon id="Path" points="0 27 17 27 17 23.8215179 3.7489083 23.8215179 3.7489083 14.8977497 16.2576419 14.8977497 16.2576419 11.6806959 3.7489083 11.6806959 3.7489083 3.17848205 17 3.17848205 17 0 0 0"></polygon>
            <path d="M90,8 L88.8937856,8.06599202 C85.8149185,8.2941126 83.7746225,9.49826337 82.7728977,11.6781727 L82.7728977,11.0728385 L82.7728977,8.44619299 L79,8.44619299 L79,27 L82.8883862,27 L82.8883862,16.6968255 C82.8883862,15.2523334 83.2934207,14.0606749 84.1010149,13.123208 C84.9088841,12.1854695 86.2375512,11.6276603 88.0853665,11.4503237 L90,11.2642968 L90,8 Z" id="Path"></path>
            <path d="M37,26.9997286 L37,15.4858931 C37,10.4952072 34.8687888,8 30.6074102,8 C29.2921022,8 28.1109082,8.29151012 27.064089,8.87425894 C26.0167479,9.45673633 25.2008447,10.3054814 24.6163794,11.4199511 L24.6163794,8.45599349 L21,8.45599349 L21,26.9997286 L24.6896985,26.9997286 L24.6896985,16.4358795 C24.6896985,14.8146598 25.139789,13.5229497 26.0412746,12.5602063 C26.9417165,11.5974629 28.1351739,11.1162269 29.6211249,11.1162269 C30.8876404,11.1162269 31.8186103,11.4837359 32.4155999,12.218754 C33.0118067,12.9535007 33.3105625,14.1059699 33.3105625,15.6761618 L33.3105625,27 L37,26.9997286 Z" id="Path"></path>
            <path d="M49.6299506,11.0348821 C51.4245481,11.0348821 53.156049,11.709687 54.8244533,13.059029 L56,10.3608802 C55.2412159,9.63628807 54.2619999,9.06186075 53.0615395,8.63733059 C51.8602667,8.21280043 50.6159366,8 49.3266536,8 C47.455961,8 45.819782,8.3999042 44.4170334,9.19890958 C43.0142847,9.99871798 41.92729,11.1229467 41.1563198,12.5718633 C40.3850789,14.0210476 40,15.6950776 40,17.593418 C40,19.4925615 40.3728928,21.147319 41.1186785,22.5592967 C41.8639226,23.9704714 42.9254621,25.0636499 44.303297,25.838297 C45.6805903,26.6132118 47.3043125,27 49.1750051,27 C50.488931,27 51.7530296,26.7936237 52.9662176,26.3811389 C54.178864,25.9691894 55.1900345,25.4009185 55.9991876,24.6765941 L54.8239117,21.9404356 C53.156049,23.2897777 51.4237357,23.9645826 49.6296798,23.9645826 C47.8345407,23.9645826 46.4450613,23.4088924 45.459346,22.2969767 C44.47336,21.1861317 43.9807731,19.6049844 43.9807731,17.5567468 C43.9807731,15.4833479 44.4798592,13.8783776 45.4783021,12.7413006 C46.4772866,11.6036883 47.8608083,11.0348821 49.6299506,11.0348821 Z" id="Path"></path>
            <path d="M71.74375,9.16171933 C70.3803571,8.387329 68.8,8 66.9997321,8 C65.1994643,8 63.6180357,8.387329 62.2557143,9.16171933 C60.8928571,9.93691269 59.8428571,11.0416168 59.10625,12.4785083 C58.3683036,13.9151322 58,15.5958778 58,17.5188712 C58,19.4180414 58.3683036,21.0854031 59.10625,22.5214917 C59.8428571,23.9581156 60.8928571,25.0638903 62.2557143,25.8382807 C63.6180357,26.613474 65.1994643,27 66.9997321,27 C68.8,27 70.3803571,26.613474 71.74375,25.8382807 C73.1060714,25.0638903 74.1560714,23.9589186 74.89375,22.5214917 C75.6311607,21.0854031 76,19.4175061 76,17.5188712 C76,15.5953424 75.6311607,13.9151322 74.89375,12.4785083 C74.1560714,11.0418844 73.1060714,9.93691269 71.74375,9.16171933 Z M70.84375,22.352855 C69.9563393,23.4524732 68.6738393,24.0017469 66.9991964,24.0017469 C65.3240179,24.0017469 64.0423214,23.4524732 63.1554464,22.352855 C62.2677679,21.2543075 61.8239286,19.6426227 61.8239286,17.5186036 C61.8239286,15.4200138 62.2739286,13.8150209 63.1741964,12.7033572 C64.0739286,11.5919612 65.3489286,11.0357279 66.9989286,11.0357279 C68.6489286,11.0357279 69.9239286,11.5919612 70.8233929,12.7033572 C71.7233929,13.8150209 72.1736607,15.4200138 72.1736607,17.5186036 C72.1755357,19.6426227 71.7314286,21.2537721 70.84375,22.352855 Z" id="Shape" fill-rule="nonzero"></path>
            <path d="M107.999728,17.0316854 C107.999728,14.2084138 107.280164,11.9970696 105.846209,10.3987236 C104.410077,8.79984221 102.434611,8 99.9189968,8 C98.190737,8 96.6470645,8.3999211 95.2879792,9.19896026 C93.9283495,9.99880246 92.873915,11.1230787 92.1246757,12.5720565 C91.3748919,14.0213021 91,15.6822863 91,17.55608 C91,20.5048958 91.8575958,22.8152834 93.5730598,24.4888488 C95.2879792,26.1629496 97.6323468,27 100.605346,27 C101.926316,27 103.221421,26.7871906 104.492297,26.3626425 C105.762628,25.9380944 106.830403,25.3639105 107.694533,24.6392877 L106.512956,21.9790361 C104.783607,23.3535975 102.854153,24.0396737 100.719692,24.0396737 C97.0845745,24.0396737 95.1289837,22.1040449 94.8493802,18.2314487 L108,18.2314487 L108,17.0316854 L107.999728,17.0316854 Z M96.468739,12.141084 C97.3456648,11.2293495 98.5207072,10.7732146 99.9946831,10.7732146 C101.443067,10.7732146 102.567198,11.2293495 103.367621,12.141084 C104.10951,12.9856296 104.535857,14.1717409 104.655921,15.6900492 L94.9367733,15.6900492 C95.1491304,14.1717409 95.6579706,12.9856296 96.468739,12.141084 Z" id="Shape" fill-rule="nonzero"></path>
            <circle id="Oval" cx="23" cy="31" r="2"></circle>
            <circle id="Oval" cx="36" cy="31" r="2"></circle>
        </g>
    </g>
</svg>