<?xml version="1.0" encoding="UTF-8"?>
<svg width="123px" height="121px" viewBox="0 0 123 121" version="1.1" xmlns="http://www.w3.org/2000/svg" xmlns:xlink="http://www.w3.org/1999/xlink">
    <!-- Generator: Sketch 52.6 (67491) - http://www.bohemiancoding.com/sketch -->
    <title>interviews</title>
    <desc>Created with Sketch.</desc>
    <g id="interviews" stroke="none" stroke-width="1" fill="none" fill-rule="evenodd">
        <path d="M46.0457171,108.019531 C73.1039529,108.019531 121.582031,96.7064822 121.582031,69.865494 C121.582031,43.0245057 73.1039529,33 46.0457171,33 C18.9874813,33 0,43.0245057 0,69.865494 C0,96.7064822 18.9874813,108.019531 46.0457171,108.019531 Z" id="Oval-Copy-2" fill-opacity="0.6" fill="#FFB580"></path>
        <g id="Group-Copy" transform="translate(20.000000, 43.000000)" fill="#000000" fill-rule="nonzero">
            <g id="noun_person_2556432" transform="translate(34.000000, 0.000000)">
                <path d="M14.8617647,18.5223547 C20.2411765,19.0515648 25.2558824,16.0527074 24.7088235,10.4077993 C24.2529412,5.11569796 19.8764706,0.529210134 14.3147059,0.176403378 C14.0411765,0.176403378 13.8588235,0.176403378 13.6764706,0.352806756 C9.02647059,0.176403378 4.92352941,3.52806756 4.92352941,8.29095877 C4.65,13.6712618 9.39117647,17.8167412 14.8617647,18.5223547 Z M14.1323529,2.99885743 C14.4970588,3.08705912 14.6794118,2.99885743 14.9529412,2.91065574 C18.1441176,3.43986587 20.6058824,5.99771485 21.4264706,8.99657228 C22.7029412,13.4066567 19.4205882,16.1409091 15.1352941,15.6999006 C11.5794118,15.2588922 8.38823529,13.05385 7.75,9.6139841 C7.20294118,5.82131148 10.2117647,2.20504223 14.1323529,2.99885743 Z" id="Shape"></path>
                <path d="M30.9942256,35.8323865 C30.9019424,31.8257316 31.0865088,26.3920489 26.1954975,23.2086792 C21.8581855,20.2448522 14.7523766,20.7937091 9.86136527,23.0440221 C4.0475216,25.6236493 1.09445814,29.9596183 0.263909048,34.1309303 C-0.93577298,39.9488129 2.10957371,45.6020383 6.26231919,50.7612926 C6.63145212,51.2003781 7.64656768,51.2552638 8.29255031,51.0906067 C9.6767988,50.7612926 9.58451557,50.0477787 10.2304982,49.3891505 C11.4301802,48.1816655 13.4604114,47.3034945 15.7674922,46.9741804 C20.1048041,46.4253236 23.8884167,48.2365512 24.9958155,50.5417499 C24.811249,50.8161783 24.811249,51.0906067 24.6266825,51.3650352 C24.5343993,51.8041206 24.9035322,52.1883204 25.3649484,52.3529775 C25.8263646,53.1762627 28.2257286,53.1213771 28.2257286,52.0785491 C28.2257286,51.5845779 28.1334454,51.0906067 28.0411622,50.6515213 C30.0713933,45.8215811 31.0865088,40.8269838 30.9942256,35.8323865 Z M17.8531409,45.179812 C15.2197608,45.0159866 12.4955745,45.5074628 10.3162255,46.4904154 C9.31735715,46.9272832 8.40929505,47.5279764 7.77365158,48.1286696 C7.59203916,48.2378866 7.50123295,48.401712 7.41042674,48.510929 C4.14140317,43.9784255 1.87124792,39.0090543 3.05172865,34.0396831 C4.05059696,29.5617882 8.77251989,23.445639 17.3083036,22.9541627 C26.7521495,22.4626865 27.0245681,30.4355238 27.2969868,34.2035086 C27.5694054,38.8452289 26.8429557,43.3777323 25.2084439,47.8010188 C23.6647384,46.4358069 21.0313583,45.3436374 17.8531409,45.179812 Z" id="Shape"></path>
            </g>
            <g id="noun_person_2556432-copy" transform="translate(68.000000, 10.000000)">
                <path d="M14.8617647,18.5223547 C20.2411765,19.0515648 25.2558824,16.0527074 24.7088235,10.4077993 C24.2529412,5.11569796 19.8764706,0.529210134 14.3147059,0.176403378 C14.0411765,0.176403378 13.8588235,0.176403378 13.6764706,0.352806756 C9.02647059,0.176403378 4.92352941,3.52806756 4.92352941,8.29095877 C4.65,13.6712618 9.39117647,17.8167412 14.8617647,18.5223547 Z M14.1323529,2.99885743 C14.4970588,3.08705912 14.6794118,2.99885743 14.9529412,2.91065574 C18.1441176,3.43986587 20.6058824,5.99771485 21.4264706,8.99657228 C22.7029412,13.4066567 19.4205882,16.1409091 15.1352941,15.6999006 C11.5794118,15.2588922 8.38823529,13.05385 7.75,9.6139841 C7.20294118,5.82131148 10.2117647,2.20504223 14.1323529,2.99885743 Z" id="Shape"></path>
                <path d="M30.9942256,35.8323865 C30.9019424,31.8257316 31.0865088,26.3920489 26.1954975,23.2086792 C21.8581855,20.2448522 14.7523766,20.7937091 9.86136527,23.0440221 C4.0475216,25.6236493 1.09445814,29.9596183 0.263909048,34.1309303 C-0.93577298,39.9488129 2.10957371,45.6020383 6.26231919,50.7612926 C6.63145212,51.2003781 7.64656768,51.2552638 8.29255031,51.0906067 C9.6767988,50.7612926 9.58451557,50.0477787 10.2304982,49.3891505 C11.4301802,48.1816655 13.4604114,47.3034945 15.7674922,46.9741804 C20.1048041,46.4253236 23.8884167,48.2365512 24.9958155,50.5417499 C24.811249,50.8161783 24.811249,51.0906067 24.6266825,51.3650352 C24.5343993,51.8041206 24.9035322,52.1883204 25.3649484,52.3529775 C25.8263646,53.1762627 28.2257286,53.1213771 28.2257286,52.0785491 C28.2257286,51.5845779 28.1334454,51.0906067 28.0411622,50.6515213 C30.0713933,45.8215811 31.0865088,40.8269838 30.9942256,35.8323865 Z M17.8531409,45.179812 C15.2197608,45.0159866 12.4955745,45.5074628 10.3162255,46.4904154 C9.31735715,46.9272832 8.40929505,47.5279764 7.77365158,48.1286696 C7.59203916,48.2378866 7.50123295,48.401712 7.41042674,48.510929 C4.14140317,43.9784255 1.87124792,39.0090543 3.05172865,34.0396831 C4.05059696,29.5617882 8.77251989,23.445639 17.3083036,22.9541627 C26.7521495,22.4626865 27.0245681,30.4355238 27.2969868,34.2035086 C27.5694054,38.8452289 26.8429557,43.3777323 25.2084439,47.8010188 C23.6647384,46.4358069 21.0313583,45.3436374 17.8531409,45.179812 Z" id="Shape"></path>
            </g>
            <g id="noun_person_2556432-copy-2" transform="translate(0.000000, 6.000000)">
                <path d="M14.8617647,18.5223547 C20.2411765,19.0515648 25.2558824,16.0527074 24.7088235,10.4077993 C24.2529412,5.11569796 19.8764706,0.529210134 14.3147059,0.176403378 C14.0411765,0.176403378 13.8588235,0.176403378 13.6764706,0.352806756 C9.02647059,0.176403378 4.92352941,3.52806756 4.92352941,8.29095877 C4.65,13.6712618 9.39117647,17.8167412 14.8617647,18.5223547 Z M14.1323529,2.99885743 C14.4970588,3.08705912 14.6794118,2.99885743 14.9529412,2.91065574 C18.1441176,3.43986587 20.6058824,5.99771485 21.4264706,8.99657228 C22.7029412,13.4066567 19.4205882,16.1409091 15.1352941,15.6999006 C11.5794118,15.2588922 8.38823529,13.05385 7.75,9.6139841 C7.20294118,5.82131148 10.2117647,2.20504223 14.1323529,2.99885743 Z" id="Shape"></path>
                <path d="M30.9942256,35.8323865 C30.9019424,31.8257316 31.0865088,26.3920489 26.1954975,23.2086792 C21.8581855,20.2448522 14.7523766,20.7937091 9.86136527,23.0440221 C4.0475216,25.6236493 1.09445814,29.9596183 0.263909048,34.1309303 C-0.93577298,39.9488129 2.10957371,45.6020383 6.26231919,50.7612926 C6.63145212,51.2003781 7.64656768,51.2552638 8.29255031,51.0906067 C9.6767988,50.7612926 9.58451557,50.0477787 10.2304982,49.3891505 C11.4301802,48.1816655 13.4604114,47.3034945 15.7674922,46.9741804 C20.1048041,46.4253236 23.8884167,48.2365512 24.9958155,50.5417499 C24.811249,50.8161783 24.811249,51.0906067 24.6266825,51.3650352 C24.5343993,51.8041206 24.9035322,52.1883204 25.3649484,52.3529775 C25.8263646,53.1762627 28.2257286,53.1213771 28.2257286,52.0785491 C28.2257286,51.5845779 28.1334454,51.0906067 28.0411622,50.6515213 C30.0713933,45.8215811 31.0865088,40.8269838 30.9942256,35.8323865 Z M17.8531409,45.179812 C15.2197608,45.0159866 12.4955745,45.5074628 10.3162255,46.4904154 C9.31735715,46.9272832 8.40929505,47.5279764 7.77365158,48.1286696 C7.59203916,48.2378866 7.50123295,48.401712 7.41042674,48.510929 C4.14140317,43.9784255 1.87124792,39.0090543 3.05172865,34.0396831 C4.05059696,29.5617882 8.77251989,23.445639 17.3083036,22.9541627 C26.7521495,22.4626865 27.0245681,30.4355238 27.2969868,34.2035086 C27.5694054,38.8452289 26.8429557,43.3777323 25.2084439,47.8010188 C23.6647384,46.4358069 21.0313583,45.3436374 17.8531409,45.179812 Z" id="Shape"></path>
            </g>
        </g>
        <g id="noun_chat_1357352" transform="translate(7.000000, 5.000000)" fill="#000000" fill-rule="nonzero">
            <path d="M56.6117512,15.3386719 C56.0635714,13.6153476 55.2413018,12.0734259 54.2363056,10.6222055 C53.8708524,10.1686992 53.5053992,9.71519278 53.1399461,9.2616864 C51.5867701,7.71976472 49.8508675,6.44994686 48.0236017,5.27083028 C45.1913396,3.36610349 42.176351,2.00558436 38.7959092,1.27997415 C36.8772801,0.826467773 34.9586509,0.645065222 32.9486585,0.46366267 C31.6695724,0.372961395 30.299123,0.100857568 29.020037,0.0101562925 C26.7359547,-0.0805449831 24.5432356,0.46366267 22.3505166,0.554363946 C21.7109736,0.554363946 21.1627938,0.645065222 20.5232508,0.645065222 C19.1528014,0.826467773 17.8737153,1.00787032 16.5946292,1.55207798 C14.6760001,2.36838946 12.5746444,3.09399966 10.8387418,4.18241497 C9.83374562,4.8173239 8.73738612,5.27083028 7.91511649,6.08714176 C7.27557344,6.63134941 6.6360304,7.26625834 5.90512406,7.71976472 C5.26558102,8.1732711 4.53467468,8.62677747 4.16922151,9.17098513 C2.70740884,11.0757119 1.24559617,13.07114 0.423326541,15.4293731 C-0.216216504,17.2433987 -0.0334899196,18.9667229 0.331963249,20.7807484 C0.514689833,21.8691637 1.06286959,22.8668777 1.70241263,23.7738905 C2.52468226,24.9530071 3.62104176,25.8600198 4.71740127,26.6763313 C6.6360304,28.1275517 8.64602283,29.4880709 10.8387418,30.4857849 C11.4782849,30.7578887 12.1178279,31.1206938 12.757371,31.4834989 C13.2141874,31.7556028 13.6710039,32.0277066 14.2191836,32.2091091 C14.6760001,32.2998104 14.95009,32.2998104 15.3155431,32.3905117 C15.3155431,32.3905117 15.3155431,32.3905117 15.3155431,32.3905117 C16.2291761,32.3905117 17.0514457,32.481213 17.8737153,32.7533168 C19.7009812,33.2068232 21.528247,33.6603295 23.3555128,34.0231346 C24.2691458,34.2045372 25.1827787,34.6580436 25.913685,35.2022512 C27.1014078,36.109264 28.1977673,37.1976793 29.2027635,38.1953933 C30.5732129,39.5559125 31.9436623,40.8257303 33.5882016,41.8234443 C34.9586509,42.7304571 36.4204636,43.5467686 37.9736396,44.2723788 C39.0699991,44.8165864 40.0749953,45.3607941 41.1713548,45.8143005 C41.7195345,46.0864043 42.4504409,46.0864043 42.7245308,45.6328979 C42.9986206,45.1793915 42.8158941,44.4537813 43.2727105,44.000275 C43.2727105,44.000275 43.0899839,43.7281711 42.9986206,43.5467686 C42.9986206,43.5467686 42.9986206,43.5467686 42.9986206,43.4560673 C42.4504409,42.8211584 41.9022611,42.2769507 41.3540814,41.6420418 C40.8972649,41.0978341 40.3490852,40.5536265 40.1663586,39.8280163 C40.1663586,39.8280163 40.1663586,39.8280163 40.1663586,39.8280163 C39.983632,39.5559125 39.8009054,39.3745099 39.6181788,39.1024061 C39.4354522,39.0117048 39.344089,38.739601 39.344089,38.4674971 C38.6131826,37.3790818 38.2477294,36.1999653 37.8822763,35.0208487 C37.6081864,34.1138359 37.6995497,34.0231346 38.6131826,33.8417321 C40.5318117,33.3882257 42.2677143,32.481213 44.0036168,31.3927976 C44.6431599,31.0299925 45.1913396,30.3950836 46.0136093,30.2136811 C47.2013321,29.9415772 48.2976916,29.5787721 49.3026878,28.8531619 C51.5867701,27.3112402 53.9622157,26.0414224 55.5153916,23.6831892 C56.1549347,22.6854752 56.7031144,21.5063586 56.885841,20.4179433 C57.0685676,18.7853203 57.0685676,17.0619961 56.6117512,15.3386719 Z M54.1449423,17.0619961 C54.2363056,20.327242 52.8658562,22.5947739 50.3990473,24.4087994 C49.9422308,24.7716045 49.4854144,25.0437084 49.1199612,25.4065135 C48.3890549,25.9507211 47.7495118,26.4949288 46.8358789,26.6763313 C46.2876991,26.8577339 45.922246,27.1298377 45.4654295,27.4926428 C43.8208903,28.5810581 42.176351,29.4880709 40.4404485,30.4857849 C39.1613624,31.2113951 37.6995497,31.3927976 36.3291003,32.0277066 C35.4154674,32.481213 35.1413775,32.9347193 35.598194,33.8417321 C35.598194,33.9324334 35.6895573,34.0231346 35.6895573,34.1138359 C35.598194,35.5650563 36.3291003,36.8348742 36.6945535,38.104692 C37.0600067,39.1024061 37.6081864,40.0094188 37.9736396,40.9164316 C38.0650029,41.0978341 38.2477294,41.1885354 38.0650029,41.369938 C37.9736396,41.4606392 37.790913,41.369938 37.6081864,41.2792367 C36.237737,40.4629252 34.7759244,39.737315 33.4968383,38.739601 C31.212756,37.106978 29.5682167,34.9301474 27.3754977,33.2975244 C26.8273179,32.9347193 26.2791382,32.481213 25.8223217,32.0277066 C25.274142,31.5742002 24.5432356,31.5742002 23.8123293,31.3927976 C21.7109736,31.0299925 19.6096179,30.5764862 17.5082622,30.0322785 C16.7773558,29.850876 16.0464495,29.9415772 15.3155431,29.9415772 C15.0414533,29.9415772 14.7673634,29.850876 14.5846368,29.7601747 C13.5796406,29.215967 12.6660077,28.6717594 11.5696482,28.218253 C9.01147599,27.220539 6.72739369,25.7693186 4.71740127,23.955293 C4.44331139,23.6831892 4.07785822,23.5017867 3.80376835,23.3203841 C2.52468226,22.2319688 2.15922909,20.6900471 1.88513921,19.1481254 C1.42832275,16.9712948 2.52468226,15.2479706 3.52967847,13.6153476 C4.71740127,11.6199196 6.45330382,9.98729661 8.28056966,8.5360762 C10.8387418,6.44994686 13.7623672,4.90802517 16.8687191,3.72890859 C18.6046217,3.09399966 20.4318875,2.91259711 22.16779,2.36838946 C23.5382394,2.00558436 24.8173255,2.27768818 26.0964116,2.18698691 C28.8373104,1.91488308 31.5782091,2.45909073 34.2277446,2.73119456 C38.1563662,3.18470094 41.9022611,4.36381752 45.2827029,6.35924558 C47.8408751,7.90116727 50.4904106,9.53379023 52.2263131,11.9827247 C53.5053992,13.6153476 54.3276688,15.2479706 54.1449423,17.0619961 Z" id="Shape"></path>
        </g>
    </g>
</svg>