<?xml version="1.0" encoding="UTF-8"?>
<svg width="123px" height="121px" viewBox="0 0 123 121" version="1.1" xmlns="http://www.w3.org/2000/svg" xmlns:xlink="http://www.w3.org/1999/xlink">
    <!-- Generator: Sketch 52.6 (67491) - http://www.bohemiancoding.com/sketch -->
    <title>workshops</title>
    <desc>Created with Sketch.</desc>
    <g id="workshops" stroke="none" stroke-width="1" fill="none" fill-rule="evenodd">
        <g id="Group-5-Copy" transform="translate(8.000000, 22.000000)">
            <path d="M48.9586705,77.0195312 C77.3522139,77.0195312 107.703125,50.2721349 107.703125,22 C107.703125,-6.2721349 71.3076059,9 42.9140625,9 C14.5205191,9 0.640625,8.55900685 0.640625,36.8311417 C0.640625,65.1032766 20.5651271,77.0195312 48.9586705,77.0195312 Z" id="Oval-Copy-3" fill-opacity="0.6" fill="#FFB580"></path>
            <g id="Group" transform="translate(51.000000, 36.000000) scale(-1, 1) translate(-51.000000, -36.000000) " fill="#000000" fill-rule="nonzero">
                <g id="noun_Business-Model-Canvas_2263269">
                    <path d="M99.705,63.5368421 C98.94,63.5368421 98.43,63.6631579 97.665,63.6631579 C96.135,43.3263158 94.605,22.8631579 93.075,2.65263158 C93.4575,1.76842105 93.075,0.757894737 92.1825,0.378947368 C91.545,1.40984446e-13 90.78,1.40984446e-13 90.27,0.378947368 C61.3275,2.02105263 32.385,3.53684211 3.4425,5.30526316 C3.315,5.30526316 3.06,5.30526316 2.9325,5.43157895 C1.9125,4.92631579 0.51,5.55789474 0.51,6.82105263 C1.275,27.4105263 2.6775,48 4.845,68.4631579 C3.4425,69.2210526 3.6975,71.7473684 5.4825,71.6210526 C5.865,71.6210526 6.12,71.6210526 6.5025,71.6210526 C6.885,71.7473684 7.2675,71.7473684 7.5225,71.6210526 C36.5925,70.2315789 65.535,68.7157895 94.605,67.3263158 C94.605,67.4526316 94.605,67.5789474 94.605,67.7052632 C94.7325,69.8526316 98.0475,69.8526316 97.92,67.7052632 C97.92,67.5789474 97.92,67.3263158 97.92,67.2 C98.5575,67.2 99.0675,67.2 99.705,67.0736842 C101.745,66.8210526 101.8725,63.4105263 99.705,63.5368421 Z M6.91040039,69.6032072 C6.117683,50.7189967 3.34271739,26.3336349 2.55,7.44942434 C22.1036957,5.39679276 42.4316304,5.71578947 61.721087,3.66315789 C70.7052174,2.84210526 82.0989324,2.65657895 91.0830628,1.83552632 C92.1400193,21.5407895 94.7276928,44.9587993 95.5204102,64.6640625 C65.9256275,66.7166941 36.505183,67.1400493 6.91040039,69.6032072 Z" id="Shape"></path>
                </g>
                <path d="M31.339416,11.4904852 L31.6239518,11.4904852 C31.7081306,11.4798298 31.715523,11.4796404 31.8152372,11.4770838 L31.9876824,11.4770838 C31.8822744,11.4807262 31.8678562,11.4812244 31.8128504,11.4955238 C31.8286632,11.4863524 31.803823,11.4965634 31.7596664,11.5202644 C31.7972554,11.4942416 31.8100124,11.488024 31.820748,11.4836798 C31.8021666,11.5013892 31.7562292,11.5297008 31.627538,11.6090144 C31.4853498,11.7444328 31.4757852,11.753542 31.4168696,12.0077712 C31.4425052,12.1085138 31.4608796,12.176969 31.4813984,12.229006 C31.5670304,12.2819778 31.6366838,12.2946336 31.8889572,12.3355136 C32.3974122,12.0975928 32.5831576,12.0102126 32.6453426,11.9082572 C32.6355258,11.9514536 32.6355258,11.9514536 32.6361708,11.9407898 C32.6263646,12.0024534 32.6263646,12.0024534 32.6170102,12.05068 C32.6083636,12.1103396 32.6083636,12.1103396 32.5991316,12.1809378 C32.5865616,12.2700288 32.5865616,12.2700288 32.5704432,12.365198 C32.5585036,12.440359 32.5585036,12.440359 32.54983,12.5169484 C32.5407614,12.6032086 32.5239362,12.6973518 32.5027922,12.787283 C32.4749682,12.9183456 32.4749682,12.9183456 32.445455,13.045036 C32.430898,13.1074812 32.4195024,13.171699 32.4094372,13.2514304 C32.3948484,13.3493856 32.3747056,13.4587758 32.3467676,13.590473 C32.3094786,13.7531278 32.3094786,13.7531278 32.274341,13.910267 C32.2357254,14.0781556 32.2357254,14.0781556 32.1971314,14.2236388 C32.1635892,14.359764 32.1635892,14.359764 32.12943,14.509375 C32.103298,14.636983 32.072442,14.7644782 32.037493,14.8896138 C31.9911302,15.0596914 31.9911302,15.0596914 31.9468864,15.2278858 C31.9028092,15.3989266 31.9028092,15.3989266 31.8584302,15.5780946 C31.8261994,15.719148 31.7904514,15.8575504 31.7485688,16.0020376 C31.7132362,16.1173608 31.6819376,16.229825 31.6546546,16.3394114 C31.6063348,16.5295934 31.6063348,16.5295934 31.5511722,16.7315684 C31.4944858,16.9293498 31.4944858,16.9293498 31.4350034,17.1209322 C31.3770112,17.2956094 31.3770112,17.2956094 31.3209796,17.4599782 C31.2653694,17.6222246 31.2653694,17.6222246 31.2041268,17.8018884 C31.158597,17.9375452 31.1127724,18.0644646 31.064098,18.188962 C30.9960544,18.3561486 30.9960544,18.3561486 30.9288596,18.514952 C30.8666362,18.6568272 30.8666362,18.6568272 30.8057938,18.7989062 C30.7388724,18.9564832 30.7388724,18.9564832 30.6779544,19.0899226 C30.6215532,19.2143008 30.6215532,19.2143008 30.567243,19.330474 C30.5160386,19.4417056 30.4581666,19.5441006 30.3975482,19.630487 C30.335914,19.7211244 30.335914,19.7211244 30.2749642,19.8111226 C30.2349054,19.8699602 30.2349054,19.8699602 30.1931482,19.9382356 C30.132674,20.036364 30.0580316,20.1286864 29.9795944,20.2058024 C29.9107974,20.27623 29.9107974,20.27623 29.8699842,20.3179062 C29.8166496,20.3765142 29.8166496,20.3765142 29.7612904,20.436778 C29.687068,20.517395 29.6033322,20.589574 29.4952444,20.6619082 C29.4360554,20.700061 29.4360554,20.700061 29.3792046,20.737918 C29.3164496,20.7799628 29.3164496,20.7799628 29.2651404,20.8139362 C29.1195574,20.9099408 28.9508248,20.9665878 28.7395672,20.9913142 C28.6420714,20.9983584 28.6420714,20.9983584 28.5419708,21 L28.2290146,21 C28.1277648,20.9983298 28.1277648,20.9983298 27.9816952,20.9844436 C27.9453848,20.9793516 27.9453848,20.9793516 27.8559092,20.968649 C27.8097806,20.9623638 27.8097806,20.9623638 27.7369544,20.9550632 C27.6507986,20.9435754 27.6507986,20.9435754 27.5519146,20.9280224 C27.5249278,20.9239936 27.5249278,20.9239936 27.4509886,20.9184596 C27.3278116,20.9059602 27.3278116,20.9059602 27.2031538,20.8885166 C27.0984416,20.8736574 27.0984416,20.8736574 26.9969632,20.8601186 C26.915581,20.8499052 26.915581,20.8499052 26.7919236,20.8379418 C26.6365094,20.823291 26.6365094,20.823291 26.4811388,20.8067544 C26.4066554,20.7986006 26.3299526,20.7931216 26.2354276,20.7896884 C26.0631468,20.7802044 26.0631468,20.7802044 25.8698314,20.7671842 C25.671462,20.7527276 25.671462,20.7527276 25.4803496,20.7364592 C25.3009822,20.721053 25.3009822,20.721053 25.1333258,20.7073362 C25.0106364,20.6972408 24.8643546,20.6816504 24.6914654,20.660367 C24.5488444,20.6425734 24.4249846,20.6298766 24.3219414,20.6222894 C24.1797804,20.6120036 24.0387058,20.5975892 23.9123038,20.5807384 C23.814797,20.5692524 23.7139664,20.561296 23.6230378,20.5573874 C23.4411704,20.5532468 23.4411704,20.5532468 23.2376824,20.5523988 L22.17427,20.5523988 C22.0960912,20.5523988 22.0226768,20.5560958 21.9519604,20.5635128 C21.8027108,20.5789506 21.8027108,20.5789506 21.6729292,20.5927888 C21.5627358,20.6050672 21.5627358,20.6050672 21.471808,20.6171138 C21.3514458,20.6375742 21.3514458,20.6375742 21.2580362,20.6540254 C21.169448,20.6731764 21.169448,20.6731764 21.0871866,20.694357 C20.9455854,20.7348904 20.9455854,20.7348904 20.7904292,20.7722342 C20.7516976,20.7808706 20.7516976,20.7808706 20.7042176,20.7956296 C20.6181086,20.8231624 20.6181086,20.8231624 20.5278514,20.852448 C20.3743118,20.8941078 20.3743118,20.8941078 20.1804752,20.9197538 C20.0808632,20.9260988 20.0808632,20.9260988 19.9803832,20.9276334 L19.8175182,20.9276334 C19.5979936,20.9925698 19.5979936,20.9925698 19,20.2522112 L19,20.206647 C19.0645358,19.9497608 19.0847836,19.8691634 19.1394116,19.8073968 C19.2006264,19.74702 19.2215998,19.7272338 19.2768302,19.6784738 C19.335937,19.617288 19.3416526,19.612881 19.3807314,19.582748 C19.429124,19.5427416 19.429124,19.5427416 19.4541802,19.5237826 C19.4909048,19.4929598 19.4909048,19.4929598 19.5552968,19.4395648 C19.6095008,19.3976936 19.6095008,19.3976936 19.6535638,19.3649156 C19.7331864,19.3036884 19.7331864,19.3036884 19.820008,19.242454 C19.901495,19.1864512 19.901495,19.1864512 19.9669058,19.1432848 C20.0232872,19.1033636 20.0232872,19.1033636 20.067319,19.070821 C20.140351,19.0091098 20.140351,19.0091098 20.2206036,18.9394888 C20.2916928,18.8794116 20.2916928,18.8794116 20.3768464,18.8058198 C20.450577,18.740581 20.450577,18.740581 20.5302168,18.6648588 C20.6005838,18.5978426 20.6005838,18.5978426 20.6690846,18.5275124 C20.7555156,18.4339948 20.7555156,18.4339948 20.8308386,18.3516992 C20.9127042,18.2586654 20.9127042,18.2586654 21.0132718,18.1421798 C21.0663914,18.082271 21.1138598,18.0231978 21.1529368,17.968987 C21.2284574,17.8611584 21.2284574,17.8611584 21.3174006,17.7285566 C21.3731818,17.646223 21.425972,17.5640542 21.470182,17.4914518 C21.54927,17.3556174 21.54927,17.3556174 21.6305872,17.2142752 C21.6803108,17.1275988 21.729357,17.0363914 21.7822076,16.9318826 C21.832604,16.8358996 21.8834108,16.7325744 21.9308488,16.6301324 C22.0059944,16.4588208 22.0059944,16.4588208 22.0770124,16.2876674 C22.14759,16.1129676 22.14759,16.1129676 22.217557,15.9313146 C22.261806,15.8134416 22.3000168,15.7003938 22.335734,15.5809056 C22.3719078,15.4678968 22.4071784,15.3503322 22.4415286,15.2282278 C22.492915,15.0427732 22.492915,15.0427732 22.5374362,14.8719794 C22.5638226,14.7596666 22.5854424,14.648427 22.6009662,14.5476102 C22.614661,14.4470372 22.6213504,14.3543994 22.6213504,14.2699008 L22.6213504,13.6239614 C22.6213504,13.5380632 22.618677,13.4625206 22.6134626,13.3968636 C22.6042084,13.2753452 22.6042084,13.2753452 22.5987196,13.1907004 C22.5913366,13.1298324 22.5913366,13.1298324 22.5807362,13.0773844 C22.5679476,13.0239476 22.5668788,13.0194812 22.5527918,12.9739098 C22.5032992,12.878157 22.5029536,12.8770238 22.46935,12.7668584 C22.4630114,12.7444282 22.4630114,12.7444282 22.4426222,12.671727 C22.434654,12.6422732 22.434654,12.6422732 22.4233576,12.5170196 C22.6031406,11.9764078 22.6031406,11.9764078 23.2281022,11.825516 L23.418764,11.825516 L31.339416,11.4904852 Z M31.611824,12.399353 C31.5987416,12.3931448 31.577774,12.371561 31.5342154,12.326722 C31.5908782,12.3866706 31.5908782,12.3866706 31.4894672,12.280287 C31.5500486,12.3465876 31.5694744,12.367847 31.5740122,12.3718818 C31.4847256,12.285798 31.4828946,12.2833676 31.434027,12.2185042 C31.4076432,12.1803256 31.4076432,12.1803256 31.3853798,12.1439384 C31.4622796,12.249875 31.4895514,12.2874448 31.556294,12.3314276 C31.5107412,12.305092 31.477608,12.2739442 31.3968978,12.1980702 C31.3270066,12.1164214 31.3270066,12.1164214 31.2959636,12.0581704 C31.3499526,12.1325808 31.368921,12.1587236 31.4004236,12.1872596 C31.3602166,12.1563174 31.3371246,12.1289446 31.2679686,12.0469684 C31.2460962,12.0157502 31.2460962,12.0157502 31.3720634,12.1519076 C31.4169928,12.185139 31.4502524,12.2097392 31.4813984,12.229006 C31.5109986,12.3040748 31.5450614,12.344976 31.611824,12.399353 Z M31.7802644,11.50349 L31.7596664,11.5202644 C31.7161596,11.5436166 31.6539008,11.5800646 31.554089,11.6384972 C31.674286,11.5653584 31.7394752,11.5256916 31.7802644,11.50349 Z M30.8790984,12.7849664 C30.9053542,12.6722914 30.9053542,12.6722914 30.9327386,12.5438142 C30.9468668,12.4832074 30.955589,12.4344042 30.959121,12.4008302 C30.97191,12.288132 30.97191,12.288132 30.990247,12.172947 C31.0034628,12.094842 31.0034628,12.094842 31.0118426,12.035558 C31.0221108,11.957024 31.0221108,11.957024 31.0364868,11.8617056 C31.046689,11.8067132 31.046689,11.8067132 31.0592946,11.7341942 C31.0667312,11.701912 31.0696704,11.6891538 31.0711004,11.6850792 C31.052086,11.3848708 31.0530596,11.3844176 31.8791058,11 L31.917427,11 C32.3089684,11.062951 32.3089684,11.062951 32.6506604,11.3784418 C32.640917,11.36279 32.640917,11.36279 32.6371408,11.3574808 L32.6305532,11.349697 C32.6005004,11.322236 32.5833218,11.307999 32.5434202,11.2860916 C32.571158,11.3034864 32.6031582,11.3219882 32.6299568,11.3404116 C32.6491036,11.36476 32.669943,11.3951614 32.6980632,11.4383688 C32.6949512,11.418021 32.6779208,11.3994386 32.6417422,11.3599628 L32.6305532,11.349697 C32.5900306,11.3018252 32.570924,11.2794724 32.5521902,11.2618196 C32.5906128,11.2949192 32.6092998,11.3141428 32.6299568,11.3404116 C32.6908722,11.3822894 32.7249118,11.4237626 32.7855732,11.506352 C32.7645502,11.4816364 32.7352986,11.4583608 32.6045108,11.356313 C32.6823112,11.4077326 32.7146842,11.4294142 32.7488426,11.460984 C32.7449864,11.459536 32.7369766,11.452811 32.7283614,11.4461412 C32.9077686,11.5870382 32.9190034,11.6317586 33,11.9541678 L33,12.0667382 C32.9249958,12.395359 32.9249958,12.395359 32.6710766,12.618869 C32.579306,12.6679098 32.5458484,12.6857892 32.4876548,12.7058818 C32.4499336,12.7214302 32.4690902,12.7122544 32.4948626,12.6981016 C32.3881868,12.756148 32.3808828,12.755341 32.360614,12.7531018 C32.3250338,12.764152 32.3250338,12.764152 32.3926204,12.7384262 C32.1640816,12.8103076 32.1640816,12.8103076 31.9876824,12.8172072 L31.8152372,12.8172072 C31.840113,12.8165598 31.8484622,12.8163426 31.8764628,12.8122608 C31.7929378,12.8267842 31.777442,12.8272366 31.6619526,12.8306084 L31.368157,12.8306084 L31.379702,12.8297548 L30.8643414,12.8516092 C30.8689936,12.8294206 30.8739106,12.807215 30.8790984,12.7849664 Z" id="Shape"></path>
                <path d="M47.1968582,26.0602232 L47.4822206,26.851419 L46.5889252,26.851419 C46.7855038,27.4842614 46.7878914,27.484906 47.471476,27.669449 C48.3096022,27.3146358 48.3096022,27.3146358 48.3596828,26.8447412 C48.3241856,26.6188992 48.3171224,26.573961 48.2073898,26.4168638 C48.2273954,26.4179066 48.2571214,26.4680852 48.3242948,26.5814768 C48.366262,26.7139166 48.3818634,26.7631508 48.3887548,26.8168162 C48.3738716,26.754132 48.3701578,26.7386152 48.3644878,26.7231892 C48.3916458,26.8049852 48.3944394,26.8173854 48.4209008,26.9348438 C48.4260054,26.9645368 48.4260054,26.9645368 48.433884,27.0047674 C48.48391,27.1728242 48.48391,27.1728242 48.5108348,27.3524664 C48.513918,27.3809072 48.513918,27.3809072 48.5301558,27.4621044 C48.5462,27.5489556 48.5462,27.5489556 48.5631648,27.6305462 C48.588986,27.7523084 48.588986,27.7523084 48.6170606,27.9111398 C48.6325752,28.0145854 48.6325752,28.0145854 48.6487728,28.099926 C48.6670726,28.1845752 48.6670726,28.1845752 48.7059512,28.3344106 C48.7484936,28.5144336 48.7484936,28.5144336 48.7833822,28.6917018 C48.8102398,28.8285118 48.8102398,28.8285118 48.8502348,29.0019996 C48.892365,29.2026946 48.892365,29.2026946 48.9285384,29.4067796 C48.9464798,29.5108536 48.969631,29.6187696 48.9988346,29.7335312 C49.0496874,29.9422902 49.0496874,29.9422902 49.0892946,30.1299762 C49.1241792,30.3065324 49.1241792,30.3065324 49.1613808,30.5062208 C49.2029188,30.7140206 49.2029188,30.7140206 49.239428,30.8898076 C49.2711812,31.030419 49.2978686,31.1647704 49.3166392,31.2773078 C49.347522,31.4344204 49.347522,31.4344204 49.3892534,31.6214638 C49.4275048,31.8040864 49.4275048,31.8040864 49.4621634,31.962583 C49.5047156,32.1380252 49.5047156,32.1380252 49.5399076,32.2850286 C49.5848932,32.4557378 49.5848932,32.4557378 49.6233156,32.6127974 C49.6662184,32.7779898 49.6662184,32.7779898 49.705963,32.9407812 C49.7303486,33.045352 49.7303486,33.045352 49.7679226,33.1787702 C49.8097704,33.3354046 49.8097704,33.3354046 49.844698,33.4841314 C49.8547714,33.5287392 49.8662714,33.5662636 49.8869028,33.6184644 C49.9402346,33.7723414 49.9402346,33.7723414 49.9817348,33.968832 C49.996932,34.0991522 49.996932,34.0991522 50,34.230384 L50,34.5175292 C49.9773088,34.9649368 49.9773088,34.9649368 49.093886,35.3689482 L48.4778716,35.3689482 C48.3604344,35.3796998 48.3604344,35.3796998 48.2928338,35.3853092 C48.2485696,35.391328 48.2485696,35.391328 48.181978,35.4038418 C48.0630848,35.4267952 48.0630848,35.4267952 47.9476252,35.4460998 C47.9366498,35.447927 47.9220552,35.4517462 47.90363,35.4582618 C47.804667,35.4936262 47.804667,35.4936262 47.6766388,35.5409448 C47.586584,35.5742732 47.586584,35.5742732 47.4855868,35.6172574 C47.3785034,35.6638706 47.3785034,35.6638706 47.2471552,35.7255718 C47.1200088,35.7837972 47.1200088,35.7837972 46.9618632,35.8585706 C46.8173128,35.9251738 46.8173128,35.9251738 46.6777428,35.992174 C46.5260768,36.070042 46.5260768,36.070042 46.3739324,36.152267 C46.2061976,36.244219 46.2061976,36.244219 46.0190096,36.3474888 C45.8338138,36.450323 45.8338138,36.450323 45.6496862,36.5547384 C45.4880786,36.6454302 45.4880786,36.6454302 45.3117508,36.750545 C45.1676422,36.8376224 45.0163616,36.9229852 44.8676256,37.0014848 C44.660237,37.1147674 44.660237,37.1147674 44.4714952,37.2197678 C44.2734708,37.332336 44.2734708,37.332336 44.0621576,37.4514354 C43.8523518,37.5676584 43.8523518,37.5676584 43.635597,37.685959 C43.4232808,37.801375 43.4232808,37.801375 43.2290376,37.9067542 C43.0342142,38.0134024 43.0342142,38.0134024 42.8674126,38.1003472 C42.7396844,38.1674252 42.7396844,38.1674252 42.575682,38.2601488 C42.4055044,38.3584464 42.4055044,38.3584464 42.2749216,38.4365286 C42.1478958,38.5138966 42.1478958,38.5138966 42.0128306,38.5983712 C41.8801354,38.6824318 41.8801354,38.6824318 41.7772746,38.7492914 C41.6561488,38.8321388 41.6561488,38.8321388 41.5463762,38.9064626 C41.4457646,38.974479 41.4457646,38.974479 41.333905,39.0502438 C41.2684962,39.0937568 41.2684962,39.0937568 41.1573292,39.1752922 C41.0811282,39.2304066 41.0811282,39.2304066 41.0669926,39.2413246 C40.9638512,39.3341628 40.9638512,39.3341628 40.8368256,39.431913 C40.797641,39.4607204 40.797641,39.4607204 40.752948,39.4986722 C40.6983664,39.5443268 40.6983664,39.5443268 40.665867,39.5718754 C40.5663518,39.6609824 40.5663518,39.6609824 40.4748978,39.7281456 C40.3797822,39.7949208 40.3797822,39.7949208 40.262084,39.8633082 C40.0459588,39.9646618 40.0459588,39.9646618 39.7247378,40 L39.4919416,40 C39.3024136,39.9885344 39.3024136,39.9885344 39.0674124,39.9180396 C39.141888,39.9450374 39.141888,39.9450374 39.142268,39.9450272 C39.0019082,39.9075684 39.0019082,39.9075684 38.809671,39.8163592 C38.631348,39.692872 38.631348,39.692872 38.5303528,39.583671 C38.4832202,39.5289608 38.4832202,39.5289608 38.4383278,39.4725974 C38.373692,39.3850964 38.373692,39.3850964 38.3211782,39.3007188 C38.2636654,39.200461 38.2636654,39.200461 38.2398324,39.1479246 C38.2058084,39.0844854 38.2058084,39.0844854 38.1515152,38.9821826 C38.0878836,38.8436462 38.0878836,38.8436462 38.0389374,38.7012424 C38.0114208,38.615382 38.0114208,38.615382 37.9789224,38.5169848 C37.9440664,38.4078916 37.9440664,38.4078916 37.9110926,38.3014452 C37.863245,38.1560244 37.863245,38.1560244 37.8168318,37.9923412 C37.7914472,37.8930688 37.7914472,37.8930688 37.7506244,37.7527824 C37.7082834,37.5960608 37.7082834,37.5960608 37.661229,37.4114038 C37.6209464,37.237724 37.6209464,37.237724 37.585348,37.071796 C37.5535714,36.9256428 37.5535714,36.9256428 37.508303,36.7381142 C37.4724462,36.5900754 37.4391912,36.439832 37.4057474,36.2728366 C37.365973,36.05787 37.365973,36.05787 37.3188614,35.8192798 C37.2696116,35.5772876 37.2696116,35.5772876 37.2158204,35.3291722 C37.1650536,35.0854554 37.1650536,35.0854554 37.1086446,34.8259842 C37.043938,34.5424056 37.043938,34.5424056 36.9816276,34.2609798 C36.9213918,33.9884586 36.9213918,33.9884586 36.8629688,33.730326 C36.7972916,33.4533914 36.7972916,33.4533914 36.7309186,33.1679894 C36.6605,32.8785886 36.6605,32.8785886 36.5902222,32.600685 C36.5443592,32.4211076 36.5010604,32.2607056 36.4580786,32.1113808 C36.4207254,31.976185 36.3763334,31.8292678 36.325866,31.6737812 C36.2475936,31.4345168 36.2475936,31.4345168 36.1898184,31.2520868 C36.1409766,31.096051 36.1409766,31.096051 36.0914684,30.937503 C36.0544134,30.8087434 36.0290278,30.693794 36.0162208,30.5863368 C36.0035222,30.4676852 36.0035222,30.4676852 36,30.3439066 L36,30.1903172 C36.1675574,29.642422 36.1675574,29.642422 36.3778992,29.4880198 C36.5290016,29.391645 36.5290016,29.391645 36.6953524,29.3184668 C36.8124098,29.2748154 36.9312676,29.2501676 37.0557382,29.2391462 L47.1968582,26.0602232 Z M46.7701684,27.768452 C46.7418166,27.628553 46.7418166,27.628553 46.7298612,27.5225666 C46.6991468,27.4233318 46.6991468,27.4233318 46.6738162,27.3124278 C46.663894,27.2618634 46.6619008,27.251706 46.6610148,27.2432948 C46.6523228,27.221211 46.6456554,27.2021042 46.6401706,27.1823638 C46.6131734,27.126513 46.6048998,27.073805 46.5689434,26.8447412 C46.6214118,26.3581522 46.6214118,26.3581522 47.471476,26 C48.1753642,26.188529 48.1753642,26.188529 48.3775902,26.8447412 C48.3775902,27.2099062 48.1320626,27.5283618 47.7675828,27.642615 L46.804453,27.9445258 C46.7846954,27.8497612 46.7838892,27.8452484 46.7701684,27.768452 Z M46.6102742,26.9867996 C46.6119732,27.0402106 46.6315284,27.0887782 46.7245766,27.319423 C46.7485438,27.3554996 46.7276428,27.3239982 46.6706332,27.2380748 C46.6579804,27.216029 46.6482392,27.199056 46.6401706,27.1823638 C46.6273222,27.1361218 46.6209636,27.0864034 46.6102742,26.9867996 Z M39.7247378,38.330551 C39.6858952,38.33496 39.6535314,38.3386338 39.6259408,38.342 C39.596243,38.3370198 39.5637916,38.3350072 39.4919416,38.330551 L39.7247378,38.330551 Z" id="Shape"></path>
                <path d="M63.2203568,14.0161066 L63.2629716,14.7580262 L62.5265294,14.7580262 C62.5669324,15.1678954 62.5704096,15.1719016 63.244447,15.4805434 C63.7893378,15.3213698 63.7912488,15.314715 63.9528302,14.7520808 L63.9528302,14.7966706 C63.9423138,14.9497714 63.9423138,14.9497714 63.8996118,15.1041492 C63.89982,15.1179056 63.8954362,15.1544886 63.8864604,15.2138982 C63.8708776,15.3124202 63.8708776,15.3124202 63.849784,15.412701 C63.835341,15.48011 63.835341,15.48011 63.8173548,15.5732242 C63.7992334,15.6559294 63.7992334,15.6559294 63.7737914,15.7735332 C63.7456988,15.891564 63.7456988,15.891564 63.7185602,15.9995062 C63.6899318,16.1139402 63.6899318,16.1139402 63.6532458,16.2552922 C63.6377906,16.3098356 63.62426,16.3719122 63.6105154,16.4558944 C63.5789436,16.621191 63.5789436,16.621191 63.5441636,16.775593 C63.5107368,16.9310378 63.5107368,16.9310378 63.478093,17.0793732 C63.4596556,17.1706376 63.4436078,17.266022 63.430227,17.3638256 C63.4125188,17.4955104 63.3904634,17.6289454 63.366615,17.7505136 C63.3354072,17.9285032 63.3354072,17.9285032 63.307771,18.0887228 C63.2811438,18.2430972 63.2811438,18.2430972 63.2484792,18.4413638 C63.2269694,18.5624596 63.209153,18.6783318 63.1934166,18.8005764 C63.1674668,18.9832516 63.1674668,18.9832516 63.1416236,19.1747984 C63.115442,19.3735418 63.115442,19.3735418 63.091194,19.5546698 C63.0702678,19.7175068 63.0702678,19.7175068 63.052822,19.8837494 C63.035337,20.0550258 63.035337,20.0550258 63.0179838,20.213837 C62.9974316,20.366844 62.9974316,20.366844 62.9732696,20.5267268 C62.9505154,20.6953132 62.9505154,20.6953132 62.9337466,20.8159192 C62.9207276,20.934051 62.9207276,20.934051 62.9105138,21.0440836 C62.9015186,21.1781228 62.9015186,21.1781228 62.8935822,21.286506 C62.8866048,21.4175376 62.8866048,21.4175376 62.8773062,21.5422234 C62.869658,21.6424864 62.869658,21.6424864 62.8622838,21.7626346 C62.852007,21.8771654 62.852007,21.8771654 62.8414872,21.9725726 C62.83229,22.0756204 62.83229,22.0756204 62.8250186,22.1469374 C62.8175276,22.2498662 62.8175276,22.2498662 62.8074026,22.3490128 C62.800044,22.4184372 62.800044,22.4184372 62.790979,22.5146694 C62.7818632,22.5846286 62.7818632,22.5846286 62.7675928,22.6852596 C62.7560048,22.7492724 62.7560048,22.7492724 62.753153,22.7574574 C62.7329264,22.8824604 62.7329264,22.8824604 62.7109924,22.9584522 C62.6790046,23.072123 62.6790046,23.072123 62.6128358,23.214367 C62.5875198,23.2769534 62.5873742,23.277223 62.5299918,23.3835432 C62.4943628,23.4415262 62.4943628,23.4415262 62.5068966,23.4156086 C62.4340858,23.536354 62.4340858,23.536354 62.3020228,23.6672274 C62.2453844,23.712516 62.2453844,23.712516 62.1947968,23.747362 C62.135198,23.7871356 62.135198,23.7871356 62.1238914,23.7900512 C61.9686598,23.8672532 61.9686598,23.8672532 61.9364886,23.8726838 C61.8065546,23.9091724 61.7999512,23.9110268 61.6719894,23.9184858 C61.6976242,23.9172926 61.7137044,23.9152998 61.745249,23.9078992 C61.6749256,23.9292976 61.6470324,23.9304296 61.5442216,23.9346016 L61.4675708,23.9346016 C61.4633406,23.939389 61.4633406,23.939389 61.4008118,23.9509138 C61.369768,23.9556186 61.369768,23.9556186 61.2828266,23.9699766 C61.1993544,23.9803452 61.1993544,23.9803452 61.1472134,23.9848398 C61.0285092,23.9976244 61.0285092,23.9976244 60.9103774,24 L59.8962264,24 C59.755222,23.9981296 59.755222,23.9981296 59.6188086,23.9903492 C59.5114116,23.9855362 59.3997392,23.976054 59.281883,23.9617914 C59.1436508,23.9450274 59.1436508,23.9450274 59.0117488,23.93025 C58.9046398,23.9185108 58.7932168,23.9022954 58.6912088,23.8840068 C58.5396246,23.8598732 58.5396246,23.8598732 58.404255,23.8376434 C58.2722594,23.8189536 58.2722594,23.8189536 58.1313206,23.8018794 C57.9976524,23.7873548 57.9976524,23.7873548 57.8948724,23.7793224 C57.7747228,23.774962 57.7747228,23.774962 57.6497642,23.7740784 L56.865566,23.7740784 C56.763945,23.7749224 56.763945,23.7749224 56.6848392,23.7779424 C56.5766796,23.7864066 56.5766796,23.7864066 56.50887,23.7921208 C56.4331914,23.802459 56.4331914,23.802459 56.35268,23.8161272 C56.2451686,23.8378084 56.1469714,23.8521582 56.0805566,23.8563406 C56.0323794,23.8621976 56.0323794,23.8621976 55.9881552,23.8705428 C55.8835392,23.8931472 55.7788584,23.9048752 55.6745284,23.9048752 L54.8814858,23.9048752 C54.7079134,23.8944698 54.7079134,23.8944698 54.637735,23.8673632 C54.491562,23.816318 54.491562,23.816318 54.425637,23.7722154 C54.4371674,23.7789394 54.4371674,23.7789394 54.5393368,23.8221488 C54.2970464,23.7106172 54.2970464,23.7106172 54.113876,23.478668 C54.0465384,23.3666384 54.0465384,23.3666384 54,23.0725326 L54,22.745541 C54.003561,22.6311872 54.003561,22.6311872 54.0169986,22.531257 C54.0191876,22.42212 54.0191876,22.42212 54.0280928,22.2948636 C54.036184,22.219182 54.036184,22.219182 54.046965,22.1093678 C54.0595822,22.0086102 54.0595822,22.0086102 54.0744454,21.8939374 C54.086309,21.8007432 54.086309,21.8007432 54.0944184,21.7180918 C54.1064894,21.5959102 54.1064894,21.5959102 54.1243898,21.452316 C54.133871,21.3806146 54.1410564,21.3057476 54.1450708,21.2437706 C54.149738,21.128468 54.1589798,21.0096566 54.1727204,20.8872704 C54.1931096,20.7133386 54.1931096,20.7133386 54.2177838,20.529314 C54.2392922,20.3468464 54.2392922,20.3468464 54.256965,20.1709838 C54.2772804,19.970372 54.2772804,19.970372 54.3022672,19.7621644 C54.3190106,19.6102196 54.3398204,19.4497008 54.3634254,19.289412 C54.3963622,19.0478758 54.3963622,19.0478758 54.4291808,18.81923 C54.459393,18.6026506 54.459393,18.6026506 54.4846998,18.3979898 C54.5012192,18.241833 54.521743,18.0731714 54.5451962,17.900093 C54.5787724,17.6342992 54.5787724,17.6342992 54.6131328,17.3818088 C54.6446626,17.130948 54.6446626,17.130948 54.6722908,16.913554 C54.7007028,16.6961376 54.7007028,16.6961376 54.7342548,16.4613834 C54.7566534,16.318346 54.7751956,16.1874692 54.7913792,16.0576286 C54.8158082,15.879873 54.8158082,15.879873 54.8322272,15.7527396 C54.8449154,15.6273594 54.8632072,15.5101088 54.8868334,15.4042752 C54.916213,15.27333 54.916213,15.27333 54.9508946,15.1419828 C54.9914828,15.0055626 55.0465802,14.8838682 55.1114078,14.797764 C55.2179338,14.6152446 55.2179338,14.6152446 55.7747642,14.4280618 L56.1661748,14.4280618 L63.2203568,14.0161066 Z M62.3362218,15.4452046 C62.3591786,15.3385216 62.3591786,15.3385216 62.3731706,15.2766876 C62.3908776,15.1833858 62.3908776,15.1833858 62.4108292,15.0902716 C62.4221648,15.0359744 62.4221648,15.0359744 62.4272188,15.0037 C62.4355718,14.9447424 62.4355718,14.9447424 62.4509122,14.849042 C62.4609248,14.8024852 62.4609248,14.8024852 62.459648,14.8193956 C62.4776244,14.7129634 62.4776244,14.7129634 62.4958994,14.6546392 C62.4885788,14.6810736 62.4868654,14.6872602 62.4830634,14.7370266 C62.6452806,14.1678364 62.650257,14.1663948 63.2246462,14 L63.2570754,14 C63.9568104,14.3188662 63.9568104,14.3188662 64,14.7520808 C64,15.1517726 63.6954294,15.4771794 63.3055866,15.4999458 L62.3088012,15.5581568 C62.3171934,15.5244478 62.3221828,15.5036698 62.3362218,15.4452046 Z" id="Shape"></path>
                <path d="M67.4786632,34.0656916 L67.9427482,33.8467956 L79.1861964,32.0719062 C79.2801096,32.0288718 79.351218,32.021151 79.5460154,32 L79.596401,32 C80.1782348,32.091609 80.1782348,32.091609 80.5105398,32.9089042 L80.5105398,34.4500898 C80.5113028,34.4925694 80.5113028,34.4925694 80.5192046,34.5858848 C80.5270462,34.7247142 80.5270462,34.7247142 80.5285348,34.8668206 C80.5296744,34.9407212 80.5296744,34.9407212 80.5354036,35.0165018 C80.5474882,35.1585708 80.5474882,35.1585708 80.5549276,35.2934528 L80.5657244,35.4407456 C80.5711228,35.514392 80.5711228,35.514392 80.5777978,35.6087294 C80.5848072,35.7167914 80.5848072,35.7167914 80.59702,35.824487 C80.6194736,35.9685722 80.6334358,36.121881 80.6386648,36.2674374 C80.6446614,36.3731866 80.65348,36.4700168 80.664601,36.555152 C80.6816164,36.6825388 80.69646,36.8347488 80.7086002,37.0008652 C80.7296486,37.2331332 80.7296486,37.2331332 80.750494,37.4400444 C80.7727958,37.6665122 80.7727958,37.6665122 80.7910498,37.8953786 C80.811677,38.1097748 80.811677,38.1097748 80.8318836,38.2861318 C80.848813,38.4297736 80.861233,38.5854344 80.8699692,38.7680666 C80.874107,38.8961062 80.8823372,39.0203644 80.8960152,39.1558762 C80.9132276,39.3458326 80.9132276,39.3458326 80.9321472,39.5069556 C80.953605,39.681285 80.953605,39.681285 80.977163,39.8715368 C80.992298,40.0165716 81,40.1564948 81,40.2915062 L81,41.423146 C80.9963144,41.5623044 80.9963144,41.5623044 80.9837,41.6588428 C80.9712698,41.7589038 80.9712698,41.7589038 80.9512362,41.8628052 C80.9420356,41.9060372 80.9420356,41.9060372 80.9263492,41.9786694 C80.865714,42.1798722 80.865714,42.1798722 80.740874,42.3679754 C80.7192802,42.3967154 80.7192802,42.3967154 80.7644088,42.3227484 C80.5350556,42.6375206 80.5350556,42.6375206 80.2120302,42.7781348 C80.0496698,42.838967 80.0443302,42.8409032 79.9600158,42.8564218 C79.7689032,42.9200794 79.7520232,42.9209822 79.5460154,42.931999 C79.5981778,42.9291618 79.5981778,42.9291618 79.5931886,42.929463 C79.4437814,42.9579496 79.4437814,42.9579496 79.332907,42.9687116 C79.2325162,42.9804232 79.2325162,42.9804232 79.0932666,42.9945358 C79.0455312,42.9988216 79.0455312,42.9988216 78.986395,43.0090402 C78.808763,43.038834 78.808763,43.038834 78.6569738,43.0506684 C78.5835168,43.0585898 78.5835168,43.0585898 78.4630672,43.0802172 C78.287927,43.1089872 78.287927,43.1089872 78.09926,43.133429 C77.9429182,43.1539478 77.9429182,43.1539478 77.7683996,43.1812588 C77.5999008,43.2063442 77.5999008,43.2063442 77.3973752,43.2387868 C77.206551,43.2668336 77.206551,43.2668336 77.0087224,43.2972776 C76.8259892,43.3231706 76.8259892,43.3231706 76.5961472,43.359085 C76.3594438,43.3969848 76.3594438,43.3969848 76.141334,43.4327822 C75.9471416,43.461771 75.9471416,43.461771 75.711136,43.5002578 C75.4769458,43.5360866 75.4769458,43.5360866 75.235736,43.5746354 C75.0015982,43.613117 75.0015982,43.613117 74.7799392,43.6541204 C74.5960584,43.6913624 74.4317076,43.719835 74.302365,43.7370544 C74.1227812,43.765923 74.1227812,43.765923 73.9089882,43.8050056 C73.7549002,43.8362138 73.615552,43.8671244 73.4766738,43.901046 C73.2858276,43.9454422 73.2858276,43.9454422 73.0877092,43.995582 C72.9136358,44.0388858 72.9136358,44.0388858 72.7361576,44.0889616 C72.6251072,44.1212092 72.5188784,44.1562218 72.4027944,44.1992472 C72.2405564,44.2578482 72.2405564,44.2578482 72.0687268,44.3262162 C71.9723118,44.3635344 71.8793324,44.4035904 71.7751988,44.4531456 C71.6340594,44.5189072 71.6340594,44.5189072 71.5102618,44.5822152 C71.434468,44.6219356 71.3580348,44.6658056 71.275666,44.7171682 C71.1185374,44.812089 71.1185374,44.812089 70.9621854,44.9000116 C70.8946376,44.9372738 70.8275176,44.9783666 70.7467016,45.0326828 C70.636722,45.1050536 70.636722,45.1050536 70.5747536,45.1487214 C70.4908034,45.2127042 70.4908034,45.2127042 70.4306132,45.259011 C70.3458174,45.3287178 70.3458174,45.3287178 70.2819458,45.380238 C70.1998938,45.4491756 70.1998938,45.4491756 70.1173348,45.5157918 C70.0679344,45.5672148 70.0679344,45.5672148 69.9725028,45.663341 C69.9128378,45.71705 69.9128378,45.71705 69.7808356,45.8204198 C69.60332,45.9347006 69.60332,45.9347006 69.2097686,46 L69.040617,46 C68.7933534,45.9737542 68.7933534,45.9737542 68.5489112,45.8648256 C68.4961066,45.8321864 68.4961066,45.8321864 68.2596402,45.6120092 C68.2190152,45.5555928 68.2190152,45.5555928 68.1863174,45.502883 C68.1798966,45.4923016 68.1798966,45.4923016 68.142532,45.430267 C68.097796,45.3455136 68.097796,45.3455136 68.0348606,45.1839152 C68.0344444,45.1824672 68.0344444,45.1824672 68.0054808,45.100324 C67.9741534,44.9931582 67.9741534,44.9931582 67.9426806,44.8288738 C67.9369368,44.7857878 67.9369368,44.7857878 67.9210868,44.6815812 C67.9100096,44.592508 67.9100096,44.592508 67.8954104,44.4657706 C67.8887194,44.3871294 67.8887194,44.3871294 67.8793262,44.296163 C67.8679198,44.1835624 67.8679198,44.1835624 67.8546042,44.0353432 C67.8477982,43.9371872 67.8477982,43.9371872 67.8343054,43.8021184 C67.8227608,43.6281444 67.8227608,43.6281444 67.8205656,43.44932 C67.819155,43.328841 67.819155,43.328841 67.8105486,43.1669764 C67.8031726,43.0038632 67.8031726,43.0038632 67.793526,42.8407298 C67.7826966,42.6556696 67.7826966,42.6556696 67.7753316,42.4817878 C67.7638834,42.30753 67.7638834,42.30753 67.745197,42.0948702 C67.729691,41.92719 67.7180008,41.766414 67.71012,41.6116966 C67.7035474,41.480479 67.6936182,41.3417202 67.680193,41.194299 C67.6580998,40.9557624 67.6580998,40.9557624 67.6312964,40.6957216 C67.6026108,40.4168568 67.6026108,40.4168568 67.5789434,40.1433562 C67.5663188,39.9921322 67.5472048,39.8331358 67.5198698,39.6553126 C67.4924218,39.4610304 67.4674666,39.2667292 67.4450048,39.0724106 C67.4125952,38.8008852 67.4125952,38.8008852 67.3770496,38.5350762 C67.3347592,38.2550346 67.3347592,38.2550346 67.297255,38.01113 C67.2651946,37.8244468 67.2386002,37.6319836 67.2174146,37.4337252 C67.2001118,37.2718024 67.1797834,37.1222832 67.1593694,37.001029 C67.1155458,36.7644368 67.1155458,36.7644368 67.0765932,36.541188 C67.0400762,36.3467806 67.0180588,36.1646792 67.0122906,36.0106718 C67.002161,35.8076972 67.002161,35.8076972 67,35.6212472 L67,34.8991532 C67.0162642,34.5144636 67.0162642,34.5144636 67.5153606,34.0563266 C67.4281618,34.1063446 67.410635,34.1163982 67.3944106,34.129645 C67.4377664,34.0956656 67.4413384,34.0930476 67.4786632,34.0656916 Z M68.4456216,35.5859886 L68.360213,35.5994712 C68.4708204,35.503154 68.55296,35.4302026 68.614122,35.3697516 L68.6592918,35.423858 C68.6086414,35.464763 68.6086414,35.464763 68.5477124,35.5105404 C68.5264506,35.5263308 68.5264506,35.5263308 68.5935408,35.465967 C68.5261544,35.5268098 68.4958964,35.5541296 68.4456216,35.5859886 Z M80.0127122,33.656191 C79.869602,33.737297 79.8316814,33.758788 79.7136222,33.7762838 L80.1202546,33.5695264 C80.0813596,33.6064252 80.0774368,33.609269 80.0127122,33.656191 Z" id="Shape"></path>
                <path d="M22.7342264,38.8025372 L26.2230324,38.899777 C26.5327082,38.9084082 26.8075768,39.0959112 26.9226342,39.377014 L26.9578874,39.4712474 C26.9934922,39.6135702 26.9934922,39.6135702 27,39.7533552 L27,40.230438 C26.9976736,40.3546358 26.9976736,40.3546358 26.9846688,40.5039514 C26.9757382,40.5793922 26.9757382,40.5793922 26.9678886,40.6762972 C26.9601082,40.7556174 26.9601082,40.7556174 26.9514732,40.8697886 C26.9430722,40.9919894 26.9430722,40.9919894 26.9352682,41.1244486 C26.9223996,41.262631 26.9223996,41.262631 26.9030068,41.4156726 C26.8933326,41.4865784 26.885799,41.5675648 26.880644,41.6582452 C26.873681,41.7807294 26.8632702,41.905079 26.8494318,42.031299 C26.8387562,42.128672 26.8317568,42.2184516 26.8275272,42.3158598 C26.8185344,42.4657332 26.8185344,42.4657332 26.8099192,42.6312292 C26.8029806,42.8263036 26.8029806,42.8263036 26.7939234,43.0251888 C26.788286,43.1427198 26.7854478,43.266613 26.7854478,43.3968094 L26.7854478,45.9189668 C26.7854478,46.0454306 26.7882996,46.1708444 26.793998,46.2952156 C26.8029956,46.5000302 26.8029956,46.5000302 26.809415,46.6814404 C26.818517,46.8583176 26.818517,46.8583176 26.8283334,47.0214366 C26.8348356,47.1548828 26.8348356,47.1548828 26.846184,47.3037908 C26.8551178,47.440509 26.8551178,47.440509 26.8651604,47.570543 C26.8712864,47.7034488 26.8712864,47.7034488 26.8725124,47.8364142 L26.8725124,48.6811852 C26.8699462,48.778115 26.8699462,48.778115 26.8463862,48.9340538 C26.832183,48.9920446 26.832183,48.9920446 26.8008344,49.0927398 C26.7616502,49.2245302 26.7616502,49.2245302 26.6486318,49.4135224 C26.6347382,49.4407578 26.6347382,49.4407578 26.6020292,49.4915424 C26.4506568,49.7064194 26.4506568,49.7064194 25.9179104,49.857179 L25.6256218,49.857179 C25.4491946,49.8512188 25.4491946,49.8512188 25.3362658,49.8090782 C25.2705276,49.7859356 25.2705276,49.7859356 25.2624974,49.7814606 C25.2515534,49.7775272 25.2515534,49.7775272 25.3139534,49.7935076 C25.2462696,49.7775732 25.2462696,49.7775732 25.2380786,49.7737218 C25.206543,49.765226 25.1917126,49.7622872 25.1800304,49.7599392 L24.3942786,49.7599392 C24.3415276,49.7605798 24.3415276,49.7605798 24.3063582,49.7619842 C24.1735854,49.7730218 24.1735854,49.7730218 24.039801,49.775133 C23.9607446,49.7759052 23.9607446,49.7759052 23.888072,49.7787256 C23.7417136,49.78839 23.7417136,49.78839 23.5951492,49.7903266 L20.585199,49.7903266 C20.4455714,49.7912354 20.4455714,49.7912354 20.307264,49.7952766 C20.1198446,49.8037678 20.1198446,49.8037678 19.9415422,49.8055204 C19.8771222,49.8055204 19.818616,49.8092902 19.7660106,49.8164636 C19.6528592,49.8318932 19.538616,49.8421594 19.4421628,49.8462206 C19.3824098,49.8502946 19.3295544,49.8567514 19.3035858,49.861292 C19.1764286,49.8873982 19.1764286,49.8873982 19.0498786,49.91007 C18.946939,49.927415 18.946939,49.927415 18.85929,49.9425886 C18.7751352,49.9573626 18.7751352,49.9573626 18.69842,49.9711368 C18.570683,49.992967 18.570683,49.992967 18.4179104,50 L17.7866916,50 C17.3335404,49.9554826 17.3335404,49.9554826 17,49.2342366 L17,48.9060522 C17.0041534,48.7925936 17.0041534,48.7925936 17.0171412,48.6922604 C17.0264696,48.6284466 17.0264696,48.6284466 17.0314868,48.6000438 C17.0406196,48.514085 17.0406196,48.514085 17.0507682,48.4389218 C17.0639548,48.3262078 17.0639548,48.3262078 17.0876396,48.1838904 C17.101024,48.1164464 17.101024,48.1164464 17.1170234,48.015093 C17.1340308,47.898746 17.1340308,47.898746 17.1512274,47.7689548 C17.1681448,47.6514214 17.1681448,47.6514214 17.1858856,47.5088792 C17.2069852,47.3439348 17.2069852,47.3439348 17.2319758,47.1740138 C17.2465848,47.0758604 17.2595604,46.9680758 17.2708068,46.8508428 C17.2847326,46.7056778 17.302287,46.5672924 17.3239036,46.4335188 C17.3386124,46.344079 17.3506222,46.2367708 17.3594548,46.1124758 C17.3707816,45.9530774 17.3866208,45.7927592 17.4069608,45.631531 C17.4236644,45.499128 17.4367546,45.359322 17.4468288,45.2027426 C17.4578258,45.0594508 17.4633084,44.9183584 17.4633084,44.7794378 L17.4633084,42.7769056 C17.4633084,42.6438446 17.4603468,42.4856276 17.4543756,42.3027844 C17.4454912,42.0218916 17.4454912,42.0218916 17.4389654,41.7779274 L17.4296372,41.531789 C17.424973,41.40872 17.424973,41.40872 17.420013,41.2762856 C17.4162632,41.1278734 17.4088676,40.9941678 17.3991088,40.88674 C17.3773974,40.6751038 17.3773974,40.6751038 17.3599486,40.4688942 C17.3446728,40.2873782 17.3446728,40.2873782 17.3276544,40.1215636 C17.3089976,39.9483552 17.3089976,39.9483552 17.2891498,39.7631794 C17.2747952,39.6188194 17.2747952,39.6188194 17.2604662,39.5165918 C17.242494,39.3995024 17.233209,39.286078 17.233209,39.175994 L17.233209,38.7931122 C17.1214034,38.7106756 17.1214034,38.7106756 18.016791,38 L18.187811,38 C18.2864594,38.0028858 18.2864594,38.0028858 18.431537,38.0229406 C18.436501,38.0239332 18.436501,38.0239332 18.4928474,38.0316076 C18.5254792,38.0365864 18.5254792,38.0365864 18.595414,38.0448698 C18.6887264,38.0597392 18.6887264,38.0597392 18.7899608,38.0795692 C18.8736366,38.0963056 18.8736366,38.0963056 18.955936,38.1119924 C19.0584876,38.1330726 19.0584876,38.1330726 19.191189,38.165117 C19.2822814,38.1898186 19.2822814,38.1898186 19.342737,38.2059508 C19.454534,38.2303552 19.454534,38.2303552 19.5554514,38.2541802 C19.6844344,38.2824266 19.6844344,38.2824266 19.7849314,38.3083242 C19.8672092,38.3279836 19.8672092,38.3279836 19.956709,38.3483232 C20.0934596,38.3751538 20.0934596,38.3751538 20.1934982,38.3976344 C20.2995246,38.4183574 20.4100998,38.4478286 20.5211334,38.4840176 C20.6244744,38.5155858 20.6244744,38.5155858 20.6979472,38.5337424 C20.8285222,38.5651916 20.8285222,38.5651916 20.9385054,38.5962968 C21.0514878,38.625274 21.0514878,38.625274 21.1656916,38.6543548 C21.2738718,38.6844082 21.2738718,38.6844082 21.3913016,38.7182554 C21.4792584,38.7427828 21.4792584,38.7427828 21.5728666,38.7641358 C21.6793684,38.790567 21.6793684,38.790567 21.8044148,38.8242106 C21.8739526,38.8446314 21.8739526,38.8446314 21.9648018,38.867923 C22.0678222,38.8975498 22.0678222,38.8975498 22.1930966,38.9395472 C22.2220348,38.9499132 22.2220348,38.9499132 22.2235856,38.9505144 C22.3796414,38.855119 22.5502096,38.7974082 22.7342264,38.8025372 Z" id="Shape"></path>
                <path d="M53.5284074,41.8755666 C53.538272,41.8776158 53.5524742,41.8789924 53.5711168,41.8789924 L54.4996776,41.8789924 C54.5843674,41.8781422 54.5843674,41.8781422 54.6688948,41.8746788 C54.7853128,41.8655416 54.7853128,41.8655416 54.874284,41.8598582 C54.958873,41.8511164 54.958873,41.8511164 55.0523878,41.8382576 C55.1393652,41.824745 55.1393652,41.824745 55.2174742,41.808743 C55.3210594,41.7830898 55.3210594,41.7830898 55.3929576,41.7640956 C55.4828606,41.736964 55.4828606,41.736964 55.576629,41.7077118 C55.6587932,41.6810836 55.6587932,41.6810836 55.7396476,41.6515138 C55.846019,41.6136582 55.846019,41.6136582 55.9725392,41.5749846 C55.9901538,41.5705024 56.0116894,41.5625314 56.058684,41.540533 C56.1638972,41.496113 56.1638972,41.496113 56.2836788,41.4518862 C56.3795932,41.422321 56.3795932,41.422321 56.4786244,41.3977128 C56.5267426,41.3863556 56.5267426,41.3863556 56.5667082,41.3748012 C56.629546,41.3558496 56.629546,41.3558496 56.6797376,41.341176 C56.7581364,41.318557 56.7581364,41.318557 56.8697414,41.2962394 C56.7997324,41.311674 56.7997324,41.311674 56.8091094,41.307585 C56.8754638,41.2786418 56.8754638,41.2786418 56.9356574,41.2539594 C57.0231552,41.2186774 57.0231552,41.2186774 57.0835852,41.1997712 C57.154154,41.1726452 57.154154,41.1726452 57.3438934,41.148569 L61.3135678,41.0004042 C61.6890696,40.9864264 62,41.3367312 62,41.773762 L62,41.981128 C61.9747818,42.2192488 61.9695314,42.2688262 61.884896,42.409142 C61.8924432,42.4036874 61.9075988,42.3645768 61.9445812,42.2691406 C61.9111736,42.3711126 61.9111736,42.3711126 61.9204,42.3363764 C61.9291526,42.3060024 61.9303526,42.301838 61.9314676,42.2952508 C61.9303436,42.301832 61.929356,42.309407 61.9220914,42.365133 L61.9141096,42.4146532 C61.897927,42.5272272 61.897927,42.5272272 61.8763754,42.636138 C61.8626458,42.701344 61.8626458,42.701344 61.8531876,42.747213 C61.8350384,42.8558176 61.8350384,42.8558176 61.8108356,42.9835352 C61.7834776,43.1203546 61.7834776,43.1203546 61.7593076,43.2241906 C61.74268,43.3051134 61.74268,43.3051134 61.720374,43.4323122 C61.7006028,43.5390192 61.7006028,43.5390192 61.6789898,43.6772048 C61.6507278,43.838677 61.6507278,43.838677 61.6205414,43.9888932 C61.593397,44.1374056 61.593397,44.1374056 61.5720124,44.2614056 C61.5515532,44.3983594 61.5515532,44.3983594 61.5289104,44.562341 C61.5045488,44.738811 61.5045488,44.738811 61.4819828,44.8899318 C61.4628478,45.0247746 61.4628478,45.0247746 61.4406674,45.2101044 C61.4157874,45.4202242 61.4157874,45.4202242 61.392012,45.6002996 C61.369186,45.7812948 61.369186,45.7812948 61.3444162,45.9585302 C61.3189518,46.1341428 61.3189518,46.1341428 61.2881344,46.3373778 C61.25432,46.5377706 61.25432,46.5377706 61.217015,46.7478662 C61.1830656,46.9393544 61.1830656,46.9393544 61.15849,47.088125 C61.1309606,47.2552874 61.1309606,47.2552874 61.0946258,47.4628146 C61.0677286,47.6125532 61.040537,47.7492436 61.0121324,47.8766594 C60.9752758,48.0394782 60.9752758,48.0394782 60.9354264,48.2173064 C60.8948968,48.385765 60.8948968,48.385765 60.8534004,48.5523962 C60.8135148,48.7035792 60.8135148,48.7035792 60.7726036,48.8567184 C60.7331826,48.997381 60.7331826,48.997381 60.6955394,49.1318384 C60.6537986,49.2775374 60.6537986,49.2775374 60.6127084,49.407387 C60.5724132,49.5329476 60.5724132,49.5329476 60.5280564,49.66343 C60.4823556,49.7883236 60.4823556,49.7883236 60.4318414,49.9130414 C60.3867292,50.016269 60.3867292,50.016269 60.3542868,50.0838812 C60.3187792,50.1615568 60.3187792,50.1615568 60.2988098,50.2008778 C60.2618024,50.2852352 60.2618024,50.2852352 60.2198098,50.3686924 C60.1340064,50.5110624 60.1340064,50.5110624 60.0459772,50.6123922 C59.9648826,50.7064134 59.9648826,50.7064134 59.9251544,50.7461624 C59.782945,50.8785748 59.782945,50.8785748 59.6438392,50.9410348 C59.5008888,50.9904442 59.5008888,50.9904442 59.3553314,51 L58.9588972,51 C58.8387544,50.9944646 58.8387544,50.9944646 58.7663864,50.9798434 C58.7138812,50.971254 58.7138812,50.971254 58.6831654,50.9658722 C58.6108448,50.9576468 58.6108448,50.9576468 58.5660352,50.950666 C58.49057,50.942396 58.49057,50.942396 58.4436462,50.9351908 C58.3475328,50.9234996 58.3475328,50.9234996 58.2235456,50.8992592 C58.1777086,50.8886328 58.1777086,50.8886328 58.145659,50.8834796 C58.0587058,50.8709828 58.0587058,50.8709828 57.9649004,50.8545436 C57.8646328,50.8353244 57.8646328,50.8353244 57.791019,50.817725 C57.7553074,50.8111558 57.7553074,50.8111558 57.6862232,50.804731 C57.6323592,50.7998704 57.6323592,50.7998704 57.5727078,50.798824 L55.8885276,50.798824 C55.7935198,50.8000716 55.7935198,50.8000716 55.680624,50.8073788 C55.5825924,50.8136552 55.5825924,50.8136552 55.5090026,50.8219976 C55.383761,50.841913 55.383761,50.841913 55.2526758,50.8592886 C55.1451676,50.8736552 55.1451676,50.8736552 55.0482994,50.88971 C54.9454134,50.907638 54.9454134,50.907638 54.8528152,50.9250466 C54.7488238,50.9475524 54.6481796,50.9620062 54.5693966,50.966519 C54.4414358,50.976427 54.4414358,50.976427 54.3107726,50.9783348 L53.7174516,50.9783348 C53.611854,50.9758602 53.611854,50.9758602 53.5333084,50.9637502 C53.4750944,50.9553612 53.4750944,50.9553612 53.4495198,50.9500894 C53.3333582,50.9348478 53.3282414,50.9341766 53.1913926,50.880198 C53.108847,50.8586028 53.1044276,50.8558582 52.8979768,50.7276388 C52.8185502,50.6656556 52.8185502,50.6656556 52.7336118,50.578387 L52.696363,50.5350568 C52.614302,50.4233058 52.6005926,50.4046364 52.5726742,50.348371 C52.523035,50.2717964 52.5214932,50.2687304 52.4763362,50.178933 C52.4265612,50.060824 52.4265612,50.060824 52.4082016,49.996537 C52.397297,49.9634388 52.397297,49.9634388 52.3951444,49.9562514 C52.352718,49.8371884 52.352718,49.8371884 52.3387896,49.7776456 C52.3164998,49.6969264 52.3164998,49.6969264 52.296166,49.6127506 C52.272985,49.5070554 52.272985,49.5070554 52.2545814,49.398399 C52.2430686,49.3284106 52.2430686,49.3284106 52.2370654,49.2915316 C52.2097094,49.162399 52.2097094,49.162399 52.1902406,49.030315 C52.1763046,48.92411 52.1763046,48.92411 52.1618518,48.798593 C52.1524744,48.6839494 52.1524744,48.6839494 52.1430756,48.528988 C52.1376992,48.4048656 52.1376992,48.4048656 52.130667,48.280719 C52.1224132,48.1388244 52.1224132,48.1388244 52.1136218,47.9668612 C52.1079974,47.8256902 52.1079974,47.8256902 52.0982308,47.6648098 C52.0901104,47.497401 52.0901104,47.497401 52.0815446,47.3029116 C52.0760578,47.1331226 52.0760578,47.1331226 52.0690536,46.982588 C52.060819,46.816538 52.060819,46.816538 52.0522416,46.6145512 C52.0475104,46.4069696 52.0475104,46.4069696 52.0465746,46.1903476 L52.0465746,42.5506106 C51.9455152,42.4975606 51.9455152,42.4975606 52.7170538,41.7335268 L52.7569634,41.7335268 C52.8676058,41.7447862 52.9144346,41.7495518 52.9434202,41.7572226 C52.8789004,41.7514002 52.867226,41.7495956 52.8547782,41.7490664 C52.9493394,41.75545 52.9536568,41.7565114 53.0116426,41.7707676 C53.0496082,41.7789718 53.0496082,41.7789718 53.0558996,41.7815386 C53.1066872,41.7903724 53.1066872,41.7903724 53.117766,41.7939696 C53.230752,41.8132312 53.2316904,41.8133912 53.3339568,41.845808 C53.4241554,41.8558126 53.4291656,41.856762 53.5284074,41.8755666 Z M60.6872992,41.773762 L60.6965264,41.773762 C60.6862946,41.8247172 60.6796358,41.8874184 60.6696838,41.981128 L60.6696838,41.8245004 C60.67457,41.8102016 60.6803544,41.7935664 60.6872992,41.773762 Z" id="Shape"></path>
            </g>
        </g>
    </g>
</svg>