<?xml version="1.0" encoding="UTF-8"?>
<svg width="108px" height="31px" viewBox="0 0 108 31" version="1.1" xmlns="http://www.w3.org/2000/svg" xmlns:xlink="http://www.w3.org/1999/xlink">
    <!-- Generator: Sketch 52.6 (67491) - http://www.bohemiancoding.com/sketch -->
    <title>BBC</title>
    <desc>Created with Sketch.</desc>
    <g id="Page-1" stroke="none" stroke-width="1" fill="none" fill-rule="evenodd">
        <g id="BBC" fill="#FFFFFF" fill-rule="nonzero">
            <path d="M53.9997812,22.9977826 L50,22.9977826 L50,17.0002085 L53.9997812,17.0002085 C58.1161102,16.9717012 57.9996661,19.8755889 57.9996661,19.8755889 C57.9996661,23.1947617 53.9997812,22.9977826 53.9997812,22.9977826 Z M50,8 L53.0008854,8 C56.1170323,8.18240489 55.9994206,10.7531703 55.9994206,10.7531703 C55.9994206,13.9479167 52.5537363,14 52.5537363,14 L50,14 L50,8 Z M57.2651026,15.2972526 C57.2651026,15.2972526 60.0575084,14.0900122 60.0326329,10.8878879 C60.0326329,10.8878879 60.4573157,5.6400812 53.6042777,5 L46,5 L46,27 L54.7163708,26.9999989 C54.7163708,26.9999989 61.9992783,27.0220151 61.9992783,20.7926074 C61.9991725,20.7926074 62.1713955,16.5533582 57.2651026,15.2972526 Z M37,0 L70,0 L70,31 L37,31 L37,0 Z M20.9996636,19.8755889 C20.9996636,23.1947617 16.9999356,22.9977826 16.9999356,22.9977826 L13,22.9977826 L13,17.0002085 L16.9999356,17.0002085 C21.1164144,16.9717012 20.9996636,19.8755889 20.9996636,19.8755889 Z M13,8 L16.0012919,8 C19.1173264,8.18240489 18.9994164,10.7531703 18.9994164,10.7531703 C18.9994164,13.9479167 15.5541736,14 15.5541736,14 L13,14 L13,8 Z M23.0328863,10.8878879 C23.0328863,10.8878879 23.45724,5.6400812 16.6043884,5 L9,5 L9,27 L17.7166629,26.9999989 C17.7166629,26.9999989 24.9992666,27.0220151 24.9992666,20.7926074 C24.9992666,20.7926074 25.1708498,16.5533582 20.2652196,15.2972526 C20.2652196,15.2972526 23.0579728,14.0900122 23.0328863,10.8878879 Z M0,0 L33,0 L33,31 L0,31 L0,0 Z M100.804767,5.88328201 L100.804767,10.0216223 C100.804767,10.0216223 96.8679198,7.53923048 92.5175876,7.48925898 C92.5175876,7.48925898 84.4012375,7.32578546 84.0353884,15.4721246 C84.0353884,15.4721246 83.742219,22.9638043 92.4197579,23.3906944 C92.4197579,23.3906944 96.0606647,23.8406566 101,20.6088016 L101,24.8946507 C101,24.8946507 94.3743276,28.9338135 86.6988506,25.8227867 C86.6988506,25.8227867 80.2466713,23.4052375 80.0009248,15.4721246 C80.0009248,15.4721246 79.7325857,7.31277319 88.3377648,4.60425209 C88.3377648,4.60425209 90.6356976,3.70159397 94.7652202,4.1027875 C94.7653267,4.10267816 97.2334491,4.35319176 100.804767,5.88328201 Z M75,31 L108,31 L108,0 L75,0 L75,31 Z" id="Shape"></path>
        </g>
    </g>
</svg>