<?xml version="1.0" encoding="UTF-8"?>
<svg width="142px" height="31px" viewBox="0 0 142 31" version="1.1" xmlns="http://www.w3.org/2000/svg" xmlns:xlink="http://www.w3.org/1999/xlink">
    <!-- Generator: Sketch 52.6 (67491) - http://www.bohemiancoding.com/sketch -->
    <title>diageo_logo</title>
    <desc>Created with Sketch.</desc>
    <g id="Page-1" stroke="none" stroke-width="1" fill="none" fill-rule="evenodd">
        <g id="diageo_logo" fill="#FFFFFF" fill-rule="nonzero">
            <path d="M43.920772,19.2207379 C44.011533,19.0329847 44.1640115,18.7244025 44.2239071,18.5682457 L47.917779,9.39331415 L51.5499335,18.6611962 C51.6107733,18.817353 51.7305778,19.0645946 51.8213387,19.282092 L51.3692893,19.3750425 C50.3392153,19.6538805 49.1893369,19.8397815 48.00854,19.8397815 C46.8277298,19.8397815 45.7377602,19.6854905 44.5869509,19.3750425 C44.3745636,19.3127215 44.0732504,19.2207379 43.920772,19.2207379 Z M6.35679235,5.2385416 C10.4736038,5.2385416 13.3805615,6.10667904 15.1966719,7.75000341 C17.374869,9.70190988 18.4648384,12.2765644 18.4648384,15.5000068 C18.4648384,18.5682457 17.4047902,21.1122027 15.3164765,23.0957056 C13.5003527,24.8626779 10.5343771,25.7921695 6.35679235,25.7921695 L5.0253388,25.7921695 L5.0253388,5.2385416 L6.35679235,5.2385416 Z M133.489354,7.8745503 C135.549568,9.92037426 136.547913,12.4931766 136.547913,15.5000068 C136.547913,18.4761939 135.517839,21.0173863 133.489354,23.1264166 C131.461881,25.20287 129.01047,26.2569085 126.135242,26.2569085 C120.353056,26.2569085 115.752466,21.3901554 115.752466,15.5000068 C115.752466,12.524773 116.780797,9.95100366 118.809216,7.84295392 C120.806848,5.76648694 123.289988,4.74220624 126.135242,4.74220624 C128.980482,4.74220624 131.431893,5.79719807 133.489354,7.8745503 Z M84.7267205,9.67126685 L88.3887961,6.44687114 C85.2403411,2.13877448 81.0328618,0 76.0692405,0 C67.6223791,0 60.8118749,6.91257709 60.8118749,15.5623143 C60.8118749,24.0261505 67.5924047,31 75.8559888,31 C77.9443024,31 79.9418683,30.5343621 81.8795918,29.6355272 C83.7573533,28.7673898 85.3909977,27.558175 86.7242865,25.9780569 C87.9949002,24.5215325 88.8126001,22.8475787 89.2963793,21.0173863 C89.6902621,19.4995895 89.9326238,17.6387676 89.8100665,15.4061574 L89.7501709,14.5073225 L76.5530197,14.5073225 L76.5530197,19.2513809 L84.6649365,19.2513809 C84.4535067,21.1122027 83.514114,22.7239171 81.8795918,24.0567935 C80.0943467,25.5439609 78.0649845,26.2569085 75.7960133,26.2569085 C73.1622827,26.2569085 70.8006756,25.1415295 68.6224653,22.9405156 C66.6548339,20.8938064 65.6547476,18.4455646 65.6547476,15.5929437 C65.6547476,12.5861135 66.6848083,9.98171479 68.8031229,7.81231089 C70.8006756,5.73489057 73.2221118,4.74220624 76.0065788,4.74220624 C79.5788377,4.74220624 82.3942365,6.41624173 84.7267205,9.67126685 Z M53.6982226,23.9629441 L56.3928062,30.5343621 L61.7212003,30.5343621 L49.2192581,0.403398454 L46.7978218,0.403398454 L33.962757,30.5343621 L39.2603655,30.5343621 L42.075618,23.8392961 C42.1355935,23.6533951 42.1655147,23.5288481 42.1963667,23.4052546 C42.3161712,23.467494 42.4995017,23.5288481 42.7100538,23.6227521 C44.283816,24.2426809 46.1616439,24.582873 48.00854,24.582873 C49.8237063,24.582873 51.6107733,24.2110846 52.6708348,23.8392961 C53.2144433,23.6533951 53.395021,23.5614115 53.5474862,23.467494 C53.578418,23.5920545 53.6682348,23.8708924 53.6982226,23.9629441 Z M6.20519159,30.5343621 C11.5934812,30.5343621 15.7402804,29.295335 18.5256915,26.7216475 C21.7031103,23.8076862 23.3077111,20.0879084 23.3077111,15.5307043 C23.3077111,10.7875447 21.673189,6.97578344 18.4049428,4.12317619 C15.6504636,1.7046649 11.5635733,0.495450115 6.26603136,0.495450115 L0,0.495450115 L0,30.5343621 L6.20519159,30.5343621 Z M32.0558855,0.495450115 L27.2438783,0.495450115 L27.2438783,30.5343621 L32.0558855,30.5343621 L32.0558855,0.495450115 Z M97.7714065,16.5224217 L108.033501,16.5224217 L108.033501,11.8109402 L97.7714065,11.8109402 L97.7714065,5.2385416 L108.941084,5.2385416 L108.941084,0.495450115 L92.9584418,0.495450115 L92.9584418,30.5343621 L108.970992,30.5343621 L108.970992,25.7921695 L97.7714065,25.7921695 L97.7714065,16.5224217 Z M115.389435,4.55727216 C112.39165,7.56410236 110.910537,11.2522837 110.910537,15.5307043 C110.910537,24.1804416 117.72011,31 126.135242,31 C134.580348,31 141.36,24.2110846 141.36,15.5307043 C141.36,11.2838801 139.84608,7.65615402 136.910957,4.58791518 C133.943146,1.51877748 130.341857,0 126.135242,0 C121.956713,0 118.355424,1.51877748 115.389435,4.55727216 Z" id="path9547"></path>
        </g>
    </g>
</svg>